<?xml version="1.0" encoding="UTF-8" standalone="no"?>
<svg width="248px" height="72px" viewBox="0 0 248 72" version="1.1" xmlns="http://www.w3.org/2000/svg" xmlns:xlink="http://www.w3.org/1999/xlink" xmlns:sketch="http://www.bohemiancoding.com/sketch/ns">
    <!-- Generator: Sketch 3.4.2 (15855) - http://www.bohemiancoding.com/sketch -->
    <title>Group</title>
    <desc>Created with Sketch.</desc>
    <defs></defs>
    <g id="Page-1" stroke="none" stroke-width="1" fill="none" fill-rule="evenodd" sketch:type="MSPage">
        <g id="Group" sketch:type="MSLayerGroup" transform="translate(-1.138200, 0.296050)" fill="#000000">
            <g transform="translate(124.902549, 35.539463) scale(1, -1) translate(-124.902549, -35.539463) translate(87.089838, 0.111337)" id="Shape" sketch:type="MSShapeGroup">
                <path d="M48.3730176,25.208474 C48.3730176,17.5437353 38.8346761,17.9981691 38.8346761,17.9981691 L29.2963346,17.9981691 L29.2963346,31.8512475 L38.8346761,31.8512475 C48.657124,31.9077963 48.3730176,25.208474 48.3730176,25.208474 L48.3730176,25.208474 Z M29.2963346,52.9718609 L36.5638695,52.9718609 C44.1148295,52.5739758 43.8307232,46.9538487 43.8307232,46.9538487 C43.8307232,39.9704201 35.4846743,39.8566413 35.4846743,39.8566413 L29.2963346,39.8566413 L29.2963346,52.9718609 L29.2963346,52.9718609 Z M46.6131936,37.1314009 C46.6131936,37.1314009 53.1421884,39.91319 53.0856397,47.2945037 C53.0856397,47.2945037 54.0783085,59.3870768 38.0538948,60.8634758 L20.2689757,60.8634758 L20.2689757,10.1631029 L40.6517302,10.1631029 C40.6517302,10.1631029 57.6844829,10.1058728 57.6844829,24.4706151 C57.6844829,24.4706151 58.0816867,34.2358329 46.6131936,37.1314009 L46.6131936,37.1314009 Z M0.594102414,70.7987486 L75.4550944,70.7987486 L75.4550944,0.253174836 L0.594102414,0.253174836 L0.594102414,70.7987486 L0.594102414,70.7987486 Z"></path>
            </g>
            <g transform="translate(38.574734, 35.539463) scale(1, -1) translate(-38.574734, -35.539463) translate(0.762023, 0.111337)" id="Shape" sketch:type="MSShapeGroup">
                <path d="M48.3730176,25.208474 C48.3730176,17.5437353 38.8346761,17.9981691 38.8346761,17.9981691 L29.2963346,17.9981691 L29.2963346,31.8512475 L38.8346761,31.8512475 C48.657124,31.9077963 48.3730176,25.208474 48.3730176,25.208474 L48.3730176,25.208474 Z M29.2963346,52.9718609 L36.5638695,52.9718609 C44.1148295,52.5739758 43.8307232,46.9538487 43.8307232,46.9538487 C43.8307232,39.9704201 35.4846743,39.8566413 35.4846743,39.8566413 L29.2963346,39.8566413 L29.2963346,52.9718609 L29.2963346,52.9718609 Z M46.6131936,37.1314009 C46.6131936,37.1314009 53.1421884,39.91319 53.0856397,47.2945037 C53.0856397,47.2945037 54.0783085,59.3870768 38.0538948,60.8634758 L20.2689757,60.8634758 L20.2689757,10.1631029 L40.6517302,10.1631029 C40.6517302,10.1631029 57.6844829,10.1058728 57.6844829,24.4706151 C57.6844829,24.4706151 58.0816867,34.2358329 46.6131936,37.1314009 L46.6131936,37.1314009 Z M0.594102414,70.7987486 L75.4550944,70.7987486 L75.4550944,0.253174836 L0.594102414,0.253174836 L0.594102414,70.7987486 L0.594102414,70.7987486 Z"></path>
            </g>
            <g transform="translate(211.457173, 35.540417) scale(1, -1) translate(-211.457173, -35.540417) translate(173.644462, 0.112291)" id="Shape" sketch:type="MSShapeGroup">
                <path d="M59.9552895,57.230049 L59.9552895,47.8620351 C59.9552895,47.8620351 50.8141518,53.4828434 40.7082789,53.5966222 C40.7082789,53.5966222 21.8591535,53.9645297 21.0075159,35.5269156 C21.0075159,35.5269156 20.3262058,18.5657004 40.4814027,17.600284 C40.4814027,17.600284 48.9412303,16.5783188 60.4097233,23.9024025 L60.4097233,14.1937335 C60.4097233,14.1937335 45.0236972,5.05327707 27.1958556,12.0932544 C27.1958556,12.0932544 12.2070332,17.5709877 11.6388206,35.5269156 C11.6388206,35.5269156 11.0140592,53.993826 30.9996099,60.125617 C30.9996099,60.125617 36.3369933,62.1695473 45.9318835,61.2613609 C45.9318835,61.2613609 51.6657894,60.6931483 59.9552895,57.230049 L59.9552895,57.230049 Z M0.367226148,0.25412867 L75.2282182,0.25412867 L75.2282182,70.7997025 L0.367226148,70.7997025 L0.367226148,0.25412867 L0.367226148,0.25412867 Z"></path>
            </g>
        </g>
    </g>
</svg>