<?xml version="1.0" encoding="UTF-8" standalone="no"?>
<svg width="250px" height="33px" viewBox="0 0 250 33" version="1.1" xmlns="http://www.w3.org/2000/svg" xmlns:xlink="http://www.w3.org/1999/xlink" xmlns:sketch="http://www.bohemiancoding.com/sketch/ns">
    <!-- Generator: Sketch 3.4.2 (15855) - http://www.bohemiancoding.com/sketch -->
    <title>canonical</title>
    <desc>Created with Sketch.</desc>
    <defs></defs>
    <g id="Page-1" stroke="none" stroke-width="1" fill="none" fill-rule="evenodd" sketch:type="MSPage">
        <g id="canonical" sketch:type="MSLayerGroup" fill="#772953">
            <path d="M14.6953947,32.6358553 C12.5013158,32.6358553 10.5032895,32.2753289 8.7,31.5542763 C6.89703947,30.8328947 5.34868421,29.7736842 4.05723684,28.3763158 C2.76447368,26.9789474 1.76513158,25.2736842 1.05953947,23.2598684 C0.352960526,21.2470395 0,18.9325658 0,16.3177632 C0,13.7032895 0.390460526,11.3819079 1.17203947,9.35328947 C1.95296053,7.325 3.02006579,5.61973684 4.37236842,4.23717105 C5.72467105,2.85526316 7.28684211,1.80296053 9.06052632,1.08125 C10.8335526,0.360855263 12.7121711,0 14.6953947,0 C16.0476974,0 17.2572368,0.0898026316 18.3240132,0.270394737 C19.3904605,0.450657895 20.3144737,0.661184211 21.0963816,0.901315789 C21.8773026,1.14210526 22.5085526,1.38256579 22.9894737,1.62269737 C23.4700658,1.86348684 23.8009868,2.04342105 23.9815789,2.16348684 L22.6740132,5.77006579 C22.4036184,5.58947368 22.0128289,5.39440789 21.5023026,5.18388158 C20.9907895,4.97401316 20.3980263,4.76348684 19.7217105,4.55263158 C19.0453947,4.34309211 18.3019737,4.16973684 17.4904605,4.03421053 C16.6792763,3.89934211 15.8226974,3.83157895 14.9210526,3.83157895 C13.3884868,3.83157895 11.9911184,4.11776316 10.7289474,4.68815789 C9.46644737,5.25953947 8.38486842,6.08552632 7.48322368,7.16743421 C6.58190789,8.24967105 5.88322368,9.56447368 5.38717105,11.1118421 C4.89144737,12.6598684 4.64342105,14.3953947 4.64342105,16.3180921 C4.64342105,18.1819079 4.86118421,19.8796053 5.29703947,21.4121711 C5.73190789,22.9447368 6.39342105,24.2595395 7.28026316,25.35625 C8.16611842,26.4536184 9.26348684,27.3023026 10.5707237,27.9032895 C11.8782895,28.5046053 13.4177632,28.8046053 15.1914474,28.8046053 C17.1746711,28.8046053 18.8200658,28.5944079 20.1273026,28.1733553 C21.4348684,27.7529605 22.4184211,27.3776316 23.0799342,27.0463816 L24.2069079,30.6526316 C23.9963816,30.8032895 23.6210526,30.9907895 23.0799342,31.2161184 C22.5388158,31.4414474 21.8628289,31.6601974 21.0513158,31.8694079 C20.2401316,32.0796053 19.2934211,32.2598684 18.2115132,32.4108553 C17.1296053,32.5608553 15.9575658,32.6358553 14.6953947,32.6358553 L14.6953947,32.6358553 Z" id="Shape" sketch:type="MSShapeGroup"></path>
            <path d="M42.4625,0.721381579 C43.5444079,2.97532895 44.58125,5.25131579 45.5730263,7.55065789 C46.5648026,9.84934211 47.5634868,12.2608553 48.5703947,14.7851974 C49.5769737,17.3095395 50.6059211,19.9773026 51.6585526,22.7865132 C52.7098684,25.5970395 53.8368421,28.6546053 55.0391447,31.9598684 L50.2608553,31.9598684 C49.7493421,30.6078947 49.2690789,29.2707237 48.8184211,27.9483553 C48.3674342,26.6259868 47.9013158,25.2888158 47.4210526,23.9365132 L33.2667763,23.9365132 L30.4269737,31.9601974 L25.8740132,31.9601974 C27.0756579,28.6549342 28.2026316,25.5973684 29.2546053,22.7868421 C30.30625,19.9776316 31.3351974,17.3101974 32.3427632,14.7855263 C33.3493421,12.2611842 34.3486842,9.84967105 35.3401316,7.55098684 C36.3319079,5.25164474 37.36875,2.97565789 38.4503289,0.721710526 L42.4625,0.721710526 L42.4625,0.721381579 Z M40.3440789,5.72467105 C39.2917763,7.97861842 38.2934211,10.3226974 37.3463816,12.7569079 C36.4,15.1907895 35.4605263,17.73125 34.5292763,20.375 L46.1592105,20.375 C45.1970395,17.7608553 44.2434211,15.2289474 43.2967105,12.7792763 C42.3496711,10.3302632 41.3651316,7.97861842 40.3440789,5.72467105 L40.3440789,5.72467105 Z" id="Shape" sketch:type="MSShapeGroup"></path>
            <path d="M80.8680921,31.9598684 C80.2065789,30.8483553 79.4483553,29.6009868 78.5917763,28.2184211 C77.7351974,26.8365132 76.8111842,25.4013158 75.8190789,23.9134868 C74.8273026,22.4263158 73.7980263,20.9161184 72.73125,19.3835526 C71.6644737,17.8506579 70.6052632,16.3703947 69.5532895,14.9430921 C68.5013158,13.5157895 67.4799342,12.1703947 66.4884868,10.9082237 C65.4970395,9.64605263 64.5792763,8.53453947 63.7388158,7.57236842 L63.7388158,31.9592105 L59.4565789,31.9592105 L59.4565789,0.721381579 L62.9273026,0.721381579 C64.3398026,2.22401316 65.8496711,3.97434211 67.4575658,5.97269737 C69.0648026,7.97138158 70.6578947,10.0296053 72.2355263,12.1480263 C73.8131579,14.2664474 75.3006579,16.3480263 76.6980263,18.3914474 C78.0953947,20.4355263 79.2746711,22.2532895 80.2368421,23.8457237 L80.2368421,0.721381579 L84.5190789,0.721381579 L84.5190789,31.9595395 L80.8680921,31.9595395 L80.8680921,31.9598684 Z" id="Shape" sketch:type="MSShapeGroup"></path>
            <path d="M149.114803,31.9598684 C148.452961,30.8483553 147.695066,29.6009868 146.838487,28.2184211 C145.981908,26.8365132 145.057566,25.4013158 144.066118,23.9134868 C143.074013,22.4263158 142.044737,20.9161184 140.978289,19.3835526 C139.911184,17.8506579 138.851645,16.3703947 137.8,14.9430921 C136.748355,13.5157895 135.726645,12.1703947 134.734868,10.9082237 C133.743421,9.64605263 132.825987,8.53453947 131.985197,7.57236842 L131.985197,31.9592105 L127.702961,31.9592105 L127.702961,0.721381579 L131.173684,0.721381579 C132.586513,2.22401316 134.096382,3.97434211 135.704276,5.97269737 C137.311842,7.97138158 138.904605,10.0296053 140.482237,12.1480263 C142.059868,14.2664474 143.547368,16.3480263 144.944737,18.3914474 C146.342105,20.4355263 147.521053,22.2532895 148.483553,23.8457237 L148.483553,0.721381579 L152.765789,0.721381579 L152.765789,31.9595395 L149.114803,31.9595395 L149.114803,31.9598684 Z" id="Shape" sketch:type="MSShapeGroup"></path>
            <path d="M160.699013,0.721381579 L165.071711,0.721381579 L165.071711,31.9595395 L160.699013,31.9595395 L160.699013,0.721381579 L160.699013,0.721381579 Z" id="Shape" sketch:type="MSShapeGroup"></path>
            <path d="M186.437829,32.6358553 C184.24375,32.6358553 182.245724,32.2753289 180.442105,31.5542763 C178.639474,30.8328947 177.090789,29.7736842 175.799671,28.3763158 C174.506908,26.9789474 173.507237,25.2736842 172.801974,23.2598684 C172.096053,21.2470395 171.742434,18.9325658 171.742434,16.3177632 C171.742434,13.7032895 172.133224,11.3819079 172.914145,9.35328947 C173.695395,7.325 174.7625,5.61973684 176.114803,4.23717105 C177.467105,2.85526316 179.029605,1.80296053 180.802961,1.08125 C182.575987,0.360855263 184.454605,0 186.437829,0 C187.790132,0 188.999342,0.0898026316 190.066447,0.270394737 C191.132895,0.450657895 192.056908,0.661184211 192.838816,0.901315789 C193.620066,1.14210526 194.250987,1.38256579 194.732237,1.62269737 C195.212171,1.86348684 195.54375,2.04342105 195.723684,2.16348684 L194.416776,5.77006579 C194.146382,5.58947368 193.754934,5.39440789 193.244408,5.18388158 C192.732895,4.97401316 192.140132,4.76348684 191.464145,4.55263158 C190.788158,4.34309211 190.044408,4.16973684 189.232895,4.03421053 C188.421382,3.89934211 187.565132,3.83157895 186.663487,3.83157895 C185.13125,3.83157895 183.733224,4.11776316 182.471382,4.68815789 C181.208882,5.25953947 180.127632,6.08552632 179.225658,7.16743421 C178.324342,8.24967105 177.625329,9.56447368 177.129934,11.1118421 C176.633882,12.6598684 176.385855,14.3953947 176.385855,16.3180921 C176.385855,18.1819079 176.603618,19.8796053 177.039145,21.4121711 C177.474671,22.9447368 178.135855,24.2595395 179.022368,25.35625 C179.908224,26.4536184 181.005592,27.3023026 182.313158,27.9032895 C183.620724,28.5046053 185.160526,28.8046053 186.933882,28.8046053 C188.917105,28.8046053 190.5625,28.5944079 191.870066,28.1733553 C193.176974,27.7529605 194.161184,27.3776316 194.822368,27.0463816 L195.949342,30.6526316 C195.738487,30.8032895 195.363487,30.9907895 194.822368,31.2161184 C194.28125,31.4414474 193.605592,31.6601974 192.794079,31.8694079 C191.982566,32.0796053 191.036184,32.2598684 189.954276,32.4108553 C188.872368,32.5608553 187.700329,32.6358553 186.437829,32.6358553 L186.437829,32.6358553 Z" id="Shape" sketch:type="MSShapeGroup"></path>
            <path d="M214.205263,0.721381579 C215.287171,2.97532895 216.324013,5.25131579 217.316118,7.55065789 C218.307566,9.84934211 219.306579,12.2608553 220.313158,14.7851974 C221.320066,17.3095395 222.349013,19.9773026 223.401645,22.7865132 C224.452632,25.5970395 225.579605,28.6546053 226.782237,31.9598684 L222.003618,31.9598684 C221.492105,30.6078947 221.012171,29.2707237 220.561184,27.9483553 C220.110197,26.6259868 219.644408,25.2888158 219.163816,23.9365132 L205.009868,23.9365132 L202.169408,31.9601974 L197.616776,31.9601974 C198.818092,28.6549342 199.945066,25.5973684 200.997368,22.7868421 C202.049013,19.9776316 203.078289,17.3101974 204.085197,14.7855263 C205.092105,12.2611842 206.091118,9.84967105 207.082895,7.55098684 C208.074342,5.25164474 209.111184,2.97565789 210.193092,0.721710526 L214.205263,0.721710526 L214.205263,0.721381579 Z M212.086842,5.72467105 C211.034539,7.97861842 210.035526,10.3226974 209.089145,12.7569079 C208.142763,15.1907895 207.202961,17.73125 206.272039,20.375 L217.901974,20.375 C216.939474,17.7608553 215.986184,15.2289474 215.039145,12.7792763 C214.092763,10.3302632 213.107895,7.97861842 212.086842,5.72467105 L212.086842,5.72467105 Z" id="Shape" sketch:type="MSShapeGroup"></path>
            <path d="M249.996053,28.3085526 L249.996053,31.9598684 L231.199013,31.9598684 L231.199013,0.721381579 L235.571711,0.721381579 L235.571711,28.3085526 L249.996053,28.3085526 L249.996053,28.3085526 Z" id="Shape" sketch:type="MSShapeGroup"></path>
            <path d="M106.111842,26.7085526 C100.373355,26.7085526 95.7213816,22.0578947 95.7213816,16.3180921 C95.7213816,10.5792763 100.373355,5.92796053 106.111842,5.92796053 C111.850658,5.92796053 116.502303,10.5792763 116.502303,16.3180921 C116.502303,22.0578947 111.850658,26.7085526 106.111842,26.7085526 L106.111842,26.7085526 Z" id="Shape" sketch:type="MSShapeGroup"></path>
            <path d="M122.429605,16.3184211 C122.429605,25.3302632 115.123684,32.6358553 106.111842,32.6358553 C97.0993421,32.6358553 89.7940789,25.3299342 89.7940789,16.3184211 C89.7940789,7.30625 97.0993421,0.000657894737 106.111842,0.000657894737 C115.123684,0.000328947368 122.429605,7.30592105 122.429605,16.3184211 L122.429605,16.3184211 Z M106.111513,3.96973684 C99.2911184,3.96973684 93.7631579,9.49868421 93.7631579,16.3184211 C93.7631579,23.1391447 99.2911184,28.6664474 106.111513,28.6664474 C112.931908,28.6664474 118.459868,23.1391447 118.459868,16.3184211 C118.459868,9.49835526 112.931908,3.96973684 106.111513,3.96973684 L106.111513,3.96973684 Z" id="Shape" sketch:type="MSShapeGroup"></path>
        </g>
    </g>
</svg>