<?xml version="1.0" encoding="utf-8"?>
<!-- Generator: Adobe Illustrator 19.1.0, SVG Export Plug-In . SVG Version: 6.00 Build 0)  -->
<svg version="1.1" id="Layer_1" xmlns="http://www.w3.org/2000/svg" xmlns:xlink="http://www.w3.org/1999/xlink" x="0px" y="0px"
	 viewBox="0 0 1190.6 680.3" enable-background="new 0 0 1190.6 680.3" xml:space="preserve">
<g>
	<path fill="#1E1E1C" d="M547.5,234.1H600v21.6h-52.5v57.5h-22.9V179.6h79.2v21.6h-56.3V234.1z"/>
	<path fill="#1E1E1C" d="M651.4,315.5c-4.3,0-8.5-0.8-12.5-2.3c-4-1.5-7.5-3.8-10.6-6.7c-3.1-2.9-5.5-6.5-7.3-10.7
		c-1.9-4.2-2.8-9-2.8-14.5v-58.6h22.9V275c0,6.7,1.5,11.6,4.6,14.6c3.1,3,7.5,4.5,13.4,4.5c2.9,0,5.5-0.6,7.7-1.7
		c2.2-1.1,4.1-2.4,5.6-3.8c1.8-1.5,3.3-3.4,4.6-5.5v-60.3h22.9v90.5h-21.4V300c-1.9,2.9-4.1,5.5-6.7,7.8c-2.2,1.9-4.9,3.7-8.4,5.2
		C660,314.7,656,315.5,651.4,315.5z"/>
	<path fill="#1E1E1C" d="M715,222.7h17.7v-26.9h22.9v26.9H783v20.6h-27.3v36.5c0,2.8,0.3,5.1,1,7c0.6,1.8,1.5,3.3,2.7,4.4
		c1.1,1.1,2.4,1.8,3.8,2.3c1.4,0.4,2.9,0.7,4.4,0.7c1.3,0,2.5-0.2,3.6-0.5c1.1-0.3,2.2-0.7,3.1-1.1c1-0.5,2-1.1,2.9-1.7l8.4,18.7
		c-1.6,1.1-3.6,2.2-5.9,3.1c-1.9,0.8-4.2,1.4-6.8,2c-2.7,0.6-5.7,0.9-9,0.9c-4.5,0-8.6-0.8-12.3-2.3c-3.7-1.5-7-3.7-9.7-6.5
		c-2.7-2.8-4.9-6.2-6.5-10.1c-1.6-3.9-2.4-8.4-2.4-13.2v-40.1H715V222.7z"/>
	<path fill="#1E1E1C" d="M832.5,315.5c-4.3,0-8.5-0.8-12.5-2.3c-4-1.5-7.5-3.8-10.6-6.7c-3-2.9-5.5-6.5-7.3-10.7
		c-1.8-4.2-2.8-9-2.8-14.5v-58.6h22.9V275c0,6.7,1.5,11.6,4.6,14.6c3.1,3,7.5,4.5,13.4,4.5c2.9,0,5.5-0.6,7.7-1.7
		c2.2-1.1,4.1-2.4,5.6-3.8c1.8-1.5,3.3-3.4,4.6-5.5v-60.3H881v90.5h-21.4V300c-1.9,2.9-4.1,5.5-6.7,7.8c-2.1,1.9-4.9,3.7-8.4,5.2
		C841.1,314.7,837.1,315.5,832.5,315.5z"/>
	<path fill="#1E1E1C" d="M948.3,220.4c2,0,4,0.2,5.9,0.5c1.9,0.3,3.6,0.7,5,1.1c1.7,0.5,3.2,1,4.8,1.3l-8,20.6
		c-0.8-0.3-1.7-0.6-2.9-1c-1-0.2-2.2-0.5-3.5-0.8c-1.3-0.3-2.8-0.4-4.5-0.4c-3.6,0-6.6,0.7-9.1,1.9c-2.5,1.3-4.6,2.7-6.2,4.2
		c-1.9,1.8-3.6,3.8-5,6.1v59.2h-22.9v-90.5h21.8v13.2c1.7-2.8,3.6-5.4,5.9-7.6c2-1.9,4.6-3.7,7.7-5.3
		C940.4,221.2,944.1,220.4,948.3,220.4z"/>
	<path fill="#1E1E1C" d="M1009.7,220.4c6.2,0,12.1,1.2,17.7,3.4c5.5,2.3,10.3,5.5,14.5,9.6c4.1,4.1,7.4,9.1,9.8,14.9
		c2.4,5.8,3.6,12.2,3.6,19.2c0,0.9,0,2.1,0,3.6c0,1.5-0.1,3.2-0.2,4.9h-67.6c0.4,2,1.3,4.2,2.7,6.3c1.4,2.2,3.2,4.1,5.3,5.9
		c2.1,1.8,4.7,3.3,7.6,4.4c2.9,1.2,6.2,1.7,9.7,1.7c3.9,0,7.4-0.5,10.5-1.4c3.1-0.9,5.7-2,7.8-3.1c2.4-1.4,4.6-2.9,6.5-4.6
		l11.5,17.2c-2.9,2.4-6.2,4.6-9.9,6.5c-3.2,1.7-7,3.1-11.5,4.5c-4.4,1.3-9.4,2-14.9,2c-6.9,0-13.3-1.2-19.2-3.7
		c-5.9-2.5-11.1-5.9-15.5-10.1c-4.4-4.3-7.8-9.3-10.3-15.1c-2.5-5.8-3.7-12-3.7-18.6c0-6.6,1.1-12.8,3.4-18.6
		c2.3-5.8,5.4-10.8,9.4-15.1c4-4.3,8.8-7.6,14.4-10.1C997.2,221.6,1003.2,220.4,1009.7,220.4z M1032.4,259.5
		c-0.1-1.9-0.7-3.9-1.6-6.1c-1-2.2-2.4-4.2-4.2-6c-1.8-1.8-4.2-3.3-7-4.5c-2.8-1.1-6.1-1.7-9.9-1.7c-3.7,0-6.9,0.6-9.5,1.7
		c-2.7,1.1-4.9,2.6-6.8,4.4c-1.8,1.8-3.2,3.8-4.2,5.9c-0.9,2.1-1.5,4.3-1.6,6.3H1032.4z"/>
	<path fill="#1E1E1C" d="M524.6,360.1h22.9v119.1h56.9v21.6h-79.8V360.1z"/>
	<path fill="#1E1E1C" d="M656.6,408c6.2,0,12.1,1.1,17.6,3.4c5.5,2.3,10.4,5.5,14.5,9.6c4.1,4.1,7.4,9.1,9.8,14.9
		c2.4,5.8,3.6,12.2,3.6,19.2c0,0.9,0,2.1,0,3.6c0,1.5-0.1,3.2-0.2,4.9h-67.5c0.4,2,1.3,4.1,2.7,6.3c1.4,2.2,3.2,4.1,5.3,5.9
		c2.1,1.8,4.7,3.2,7.6,4.4c2.9,1.2,6.2,1.7,9.7,1.7c3.9,0,7.4-0.5,10.5-1.4c3.1-1,5.7-2,7.8-3.1c2.4-1.4,4.6-2.9,6.5-4.6l11.5,17.2
		c-2.9,2.4-6.2,4.6-9.9,6.5c-3.2,1.6-7,3.1-11.4,4.5c-4.5,1.3-9.4,2-14.9,2c-6.9,0-13.2-1.2-19.2-3.7c-5.9-2.5-11.1-5.9-15.4-10.1
		c-4.4-4.3-7.8-9.3-10.3-15.1c-2.5-5.8-3.7-12-3.7-18.6c0-6.6,1.1-12.8,3.4-18.6c2.3-5.8,5.4-10.8,9.4-15.1c4-4.3,8.8-7.6,14.4-10.1
		C644.1,409.2,650.1,408,656.6,408z M679.3,447.1c-0.2-1.9-0.7-3.9-1.6-6.1c-1-2.2-2.4-4.2-4.2-6c-1.9-1.8-4.2-3.3-7-4.5
		c-2.8-1.2-6.1-1.7-9.9-1.7c-3.7,0-6.9,0.6-9.5,1.7c-2.7,1.1-4.9,2.6-6.8,4.4s-3.3,3.7-4.2,5.9c-1,2.2-1.5,4.3-1.6,6.3H679.3z"/>
	<path fill="#1E1E1C" d="M807,410.3v90.4h-21.2v-11.8c-1.7,2.7-3.8,5-6.3,7.1c-2.2,1.8-5,3.4-8.5,4.9c-3.5,1.5-7.6,2.2-12.5,2.2
		c-5.9,0-11.5-1.2-16.8-3.5c-5.3-2.3-10-5.6-14-9.8c-4-4.2-7.2-9.2-9.6-15c-2.4-5.8-3.6-12.2-3.6-19.2c0-7,1.2-13.4,3.6-19.2
		c2.4-5.8,5.6-10.8,9.6-15c4-4.2,8.7-7.5,14-9.8c5.4-2.3,10.9-3.5,16.8-3.5c4.7,0,8.8,0.7,12.3,2.2c3.5,1.5,6.3,3.1,8.5,4.9
		c2.5,2.2,4.7,4.5,6.5,7.1v-11.9H807z M784.1,442c-1.4-2.3-3.1-4.4-5.2-6.3c-1.8-1.5-4-3-6.7-4.3c-2.7-1.3-5.9-2-9.5-2
		c-3.8,0-7.3,0.7-10.4,2c-3.1,1.3-5.8,3.2-7.9,5.5c-2.2,2.4-3.8,5.1-5,8.3c-1.2,3.2-1.7,6.6-1.7,10.3c0,3.7,0.6,7.1,1.7,10.3
		c1.2,3.2,2.8,5.9,5,8.3c2.1,2.3,4.8,4.2,7.9,5.5c3.1,1.3,6.6,2,10.4,2c3.7,0,6.9-0.6,9.5-1.9c2.7-1.3,4.9-2.7,6.7-4.4
		c2.1-1.8,3.8-3.9,5.2-6.3V442z"/>
	<path fill="#1E1E1C" d="M873.4,408c2,0,4,0.2,5.9,0.5c1.9,0.3,3.6,0.7,5,1c1.6,0.5,3.2,1,4.8,1.3l-8,20.6c-0.8-0.2-1.7-0.6-2.9-1
		c-1-0.3-2.2-0.5-3.5-0.8c-1.4-0.3-2.8-0.4-4.5-0.4c-3.6,0-6.6,0.6-9.1,1.9c-2.5,1.3-4.6,2.7-6.2,4.2c-1.9,1.8-3.6,3.8-4.9,6.1v59.1
		H827v-90.4h21.7v13.2c1.6-2.8,3.6-5.3,5.9-7.6c2-1.9,4.6-3.7,7.7-5.4C865.5,408.8,869.2,408,873.4,408z"/>
	<path fill="#1E1E1C" d="M949.2,408c4.3,0,8.5,0.8,12.5,2.3c4,1.5,7.5,3.8,10.6,6.7c3.1,2.9,5.5,6.5,7.3,10.7
		c1.8,4.2,2.8,9,2.8,14.5v58.6h-22.9v-52.8c0-6.5-1.7-11.2-5.2-14.1c-3.5-2.9-7.7-4.4-12.7-4.4c-2.9,0-5.5,0.6-7.7,1.9
		c-2.2,1.3-4.1,2.6-5.6,4c-1.8,1.6-3.3,3.6-4.6,5.7v59.7h-22.9v-90.4h21.4v13.2c1.7-2.8,3.8-5.3,6.3-7.6c2.2-1.9,5-3.7,8.4-5.4
		C940.2,408.8,944.3,408,949.2,408z"/>
</g>
<polygon fill="#C03A8E" points="446.7,179.6 446.7,286.3 344.9,286.3 344.9,380.1 242,380.1 242,473.8 135.2,473.8 135.2,500.8 
	268.9,500.9 268.9,407.1 371.8,407.1 371.8,313.2 473.7,313.2 473.7,179.6 "/>
</svg>
