<?xml version="1.0" encoding="UTF-8" standalone="no"?>
<svg width="250px" height="87px" viewBox="0 0 250 87" version="1.1" xmlns="http://www.w3.org/2000/svg" xmlns:xlink="http://www.w3.org/1999/xlink" xmlns:sketch="http://www.bohemiancoding.com/sketch/ns">
    <!-- Generator: Sketch 3.4.2 (15855) - http://www.bohemiancoding.com/sketch -->
    <title>kahoot</title>
    <desc>Created with Sketch.</desc>
    <defs></defs>
    <g id="Page-1" stroke="none" stroke-width="1" fill="none" fill-rule="evenodd" sketch:type="MSPage">
        <g id="kahoot" sketch:type="MSLayerGroup" fill="#333333">
            <g id="Group" sketch:type="MSShapeGroup">
                <path d="M128.835878,30.1259542 C118.194656,30.3129771 109.045802,39.3435115 108.400763,50.2938931 C107.755725,61.2442748 116.383588,71.0343511 127.671756,72.1603053 C138.961832,73.2824427 148.108779,64.25 148.108779,51.990458 C148.10687,39.7251908 139.480916,29.9370229 128.835878,30.1259542 L128.835878,30.1259542 Z M130.160305,61.8206107 C124.307252,62.509542 119.322519,57.1583969 119.660305,50.3435115 C119.992366,43.5267176 122.717557,39.2671756 128.236641,39.1507634 C133.755725,39.0343511 137.09542,45.3721374 136.465649,52.7805344 C135.982824,58.4541985 132.469466,61.5477099 130.160305,61.8206107 L130.160305,61.8206107 Z" id="Shape"></path>
                <path d="M150.173664,53.1087786 C150.173664,65.3721374 159.320611,74.4026718 170.610687,73.278626 C181.898855,72.1545802 190.526718,62.3645038 189.883588,51.4141221 C189.240458,40.4637405 180.087786,31.4312977 169.444656,31.2442748 C158.801527,31.0572519 150.173664,40.8473282 150.173664,53.1087786 L150.173664,53.1087786 Z M161.816794,53.9007634 C161.187023,46.490458 164.526718,40.1545802 170.045802,40.2709924 C175.566794,40.3854962 178.290076,44.6450382 178.624046,51.4618321 C178.959924,58.2748092 173.973282,63.6259542 168.122137,62.9370229 C165.812977,62.6679389 162.301527,59.5725191 161.816794,53.9007634 L161.816794,53.9007634 Z" id="Shape"></path>
                <path d="M0,77.5896947 L0,14.6335878 L13.1889313,11.25 L13.1564885,38.0706107 L35.4293893,16.5896947 L46.8835878,20.9923664 L30.6965649,38.9503817 L41.4332061,78.0610687 L29.7862595,78.0610687 L21.1946565,48.0954198 L13.0801527,56.0419847 L13.1889313,78.0610687 L0,77.5896947 Z" id="Shape"></path>
                <g transform="translate(70.610687, 0.000000)" id="Shape">
                    <path d="M20.2137405,50.129771 C20.2099237,50.019084 20.221374,50.2652672 20.2137405,50.129771 C20.221374,50.259542 20.2099237,50.0152672 20.2137405,50.129771 L20.2137405,50.129771 Z"></path>
                    <path d="M20.2137405,50.129771 C20.2099237,50.0400763 20.221374,50.221374 20.2137405,50.129771 C20.221374,50.2194656 20.2099237,50.0362595 20.2137405,50.129771 L20.2137405,50.129771 Z"></path>
                    <path d="M20.2137405,50.129771 C20.2041985,49.8950382 20.2290076,50.4217557 20.2137405,50.129771 C20.2290076,50.398855 20.2022901,49.8759542 20.2137405,50.129771 L20.2137405,50.129771 Z"></path>
                    <path d="M20.2137405,50.129771 C20.2118321,50.0877863 20.2156489,50.1698473 20.2137405,50.129771 C20.2156489,50.1717557 20.2118321,50.0877863 20.2137405,50.129771 L20.2137405,50.129771 Z"></path>
                    <path d="M20.2137405,50.129771 C20.221374,50.2614504 20.221374,50.2480916 20.2137405,50.129771 L20.2137405,50.129771 L20.2137405,50.129771 Z"></path>
                    <path d="M20.2137405,50.129771 C20.2099237,49.9961832 20.2251908,50.3339695 20.2137405,50.129771 C20.2270992,50.351145 20.2099237,50.0019084 20.2137405,50.129771 L20.2137405,50.129771 Z"></path>
                    <path d="M20.2137405,50.129771 C20.2118321,50.0839695 20.2194656,50.2118321 20.2137405,50.129771 C20.2194656,50.2080153 20.2118321,50.0820611 20.2137405,50.129771 L20.2137405,50.129771 Z"></path>
                    <path d="M20.2137405,50.129771 C20.2061069,49.9503817 20.2251908,50.3301527 20.2137405,50.129771 C20.2270992,50.3396947 20.2080153,49.9599237 20.2137405,50.129771 L20.2137405,50.129771 Z"></path>
                    <path d="M20.2137405,50.129771 C20.2061069,49.9141221 20.2251908,50.3320611 20.2137405,50.129771 C20.2270992,50.351145 20.2061069,49.9312977 20.2137405,50.129771 L20.2137405,50.129771 Z"></path>
                    <path d="M20.2137405,50.129771 C20.2118321,50.0992366 20.2137405,50.129771 20.2137405,50.129771 C20.2156489,50.1450382 20.2118321,50.1145038 20.2137405,50.129771 L20.2137405,50.129771 Z"></path>
                    <path d="M20.2137405,50.129771 C20.2118321,50.0706107 20.2156489,50.1679389 20.2137405,50.129771 C20.2175573,50.1793893 20.2118321,50.0801527 20.2137405,50.129771 L20.2137405,50.129771 Z"></path>
                    <path d="M20.2137405,50.129771 C20.2118321,50.110687 20.2156489,50.1469466 20.2137405,50.129771 C20.2156489,50.1431298 20.2118321,50.1068702 20.2137405,50.129771 L20.2137405,50.129771 Z"></path>
                    <path d="M20.2137405,50.129771 C20.2099237,50.0324427 20.221374,50.2270992 20.2137405,50.129771 C20.2194656,50.2118321 20.2099237,50.0133588 20.2137405,50.129771 L20.2137405,50.129771 Z"></path>
                    <path d="M20.2137405,50.129771 C20.1965649,49.759542 20.2366412,50.5667939 20.2137405,50.129771 C20.2328244,50.4580153 20.1927481,49.6698473 20.2137405,50.129771 L20.2137405,50.129771 Z"></path>
                    <path d="M20.2137405,50.129771 C20.2118321,50.0858779 20.2156489,50.1679389 20.2137405,50.129771 C20.2156489,50.1717557 20.2118321,50.0877863 20.2137405,50.129771 L20.2137405,50.129771 Z"></path>
                    <path d="M25.7022901,73.1946565 L37.2824427,73.1946565 L32.9274809,42.370229 C31.2805344,24.3664122 24.7137405,24.3244275 12.4580153,28.240458 L12.2041985,0 L0.933206107,3.01145038 L2.72900763,72.8110687 L13.7996183,73.1927481 L13.1583969,37.1278626 C15.5839695,36.0553435 23.601145,33.7977099 23.870229,42.6870229 L24.9427481,55.3645038 L25.7022901,73.1946565 L25.7022901,73.1946565 Z"></path>
                </g>
                <path d="M235.931298,73.5572519 L232.662214,81.2557252 L239.582061,86.0858779 L246.40458,82.0057252 L243.530534,73.5572519 L235.931298,73.5572519 Z" id="Shape"></path>
                <path d="M187.803435,25.6278626 L189.700382,38.7270992 L197.627863,38.7270992 L198.177481,69.8854962 C198.177481,69.8854962 196.938931,81.0954198 213.830153,78.528626 C213.830153,78.528626 219.116412,76.9446565 218.948473,73.2061069 L218.948473,60.8969466 C218.948473,60.8969466 215.389313,63.0248092 211.520992,63.0248092 C207.652672,63.0248092 207.627863,61.1374046 207.627863,61.1374046 L206.593511,37.0057252 L218.948473,36.3167939 L218.948473,28.3874046 L206.299618,27.5534351 L206.454198,11.2232824 L197.656489,7.57633588 L197.645038,25.971374 L187.803435,25.6278626 L187.803435,25.6278626 Z" id="Shape"></path>
                <path d="M226.687023,6.88740458 L250,11.3778626 L241,69.1832061 L226.687023,6.88740458 Z" id="Shape"></path>
                <path d="M44.0839695,28.6564885 L47.1717557,36.8072519 C54.8320611,32.1545802 59.1603053,36.8263359 59.1603053,36.8263359 L59.101145,42.028626 C36.2748092,46.0744275 42.0496183,67.4293893 42.0496183,67.4293893 C44.3587786,75.8091603 51.8740458,75.519084 51.8740458,75.519084 L68.9885496,75.5209924 L69.3129771,36.6641221 C66.6316794,18.5763359 44.0839695,28.6564885 44.0839695,28.6564885 L44.0839695,28.6564885 Z M59.0763359,68.0858779 C59.0763359,68.0858779 50.7977099,70.1125954 49.8835878,61.9561069 C49.8835878,61.9561069 50.0610687,49.3320611 59.3874046,50.6889313 L59.0763359,68.0858779 L59.0763359,68.0858779 Z" id="Shape"></path>
            </g>
        </g>
    </g>
</svg>