<?xml version="1.0" encoding="UTF-8" standalone="no"?>
<svg width="249px" height="47px" viewBox="0 0 249 47" version="1.1" xmlns="http://www.w3.org/2000/svg" xmlns:xlink="http://www.w3.org/1999/xlink" xmlns:sketch="http://www.bohemiancoding.com/sketch/ns">
    <!-- Generator: Sketch 3.4.2 (15855) - http://www.bohemiancoding.com/sketch -->
    <title>Group</title>
    <desc>Created with Sketch.</desc>
    <defs></defs>
    <g id="Page-1" stroke="none" stroke-width="1" fill="none" fill-rule="evenodd" sketch:type="MSPage">
        <g id="Group" sketch:type="MSLayerGroup" transform="translate(0.000000, -1.000000)" fill="#1A1918">
            <path d="M246.270718,6.07734807 C246.270718,6.21546961 246.40884,6.35359116 246.40884,6.49171271 C246.685083,7.87292818 245.856354,9.39226519 245.303867,10.6353591 L244.060773,13.121547 C243.646409,13.9502762 243.232044,14.5027624 242.679558,15.1933702 C242.127072,15.8839779 241.574586,16.8508287 241.298343,17.679558 C240.883978,18.6464088 240.607735,19.4751381 240.331492,20.441989 C239.917127,21.5469613 239.226519,22.6519337 238.674033,23.7569061 C238.121547,25 237.845304,26.2430939 237.154696,27.4861878 C236.878453,27.9005525 236.60221,28.3149171 236.187845,28.4530387 C235.773481,28.5911602 235.220994,28.5911602 234.80663,28.3149171 C234.116022,27.7624309 234.392265,26.9337017 234.530387,26.2430939 C234.80663,25.4143646 235.220994,24.5856354 235.497238,23.8950276 C235.911602,22.7900552 236.464088,21.6850829 237.016575,20.718232 C237.569061,19.6132597 238.39779,18.7845304 238.535912,17.4033149 C238.674033,16.160221 238.121547,15.3314917 237.845304,14.2265193 C237.569061,12.9834254 237.430939,11.6022099 237.016575,10.359116 C236.740331,9.39226519 235.220994,6.49171271 236.878453,6.07734807 C238.259669,5.66298343 238.812155,8.14917127 239.088398,9.1160221 C239.502762,10.4972376 239.779006,12.0165746 240.055249,13.3977901 C240.055249,13.6740331 240.469613,13.6740331 240.607735,13.5359116 C241.850829,11.878453 242.81768,10.0828729 243.508287,8.01104972 C243.78453,7.32044199 243.78453,6.49171271 244.337017,6.07734807 C244.61326,5.38674033 245.856354,5.38674033 246.270718,6.07734807" id="Shape" sketch:type="MSShapeGroup"></path>
            <path d="M228.176796,9.25414365 C228.453039,10.6353591 227.762431,12.5690608 227.348066,13.9502762 C226.79558,15.7458564 225.966851,17.5414365 224.861878,19.0607735 C224.309392,19.8895028 223.756906,20.5801105 223.066298,21.2707182 C222.513812,21.961326 221.685083,22.7900552 220.856354,23.0662983 C219.475138,23.480663 218.922652,22.3756906 218.508287,21.4088398 C218.093923,20.1657459 217.81768,18.9226519 217.403315,17.679558 C217.265193,16.9889503 216.98895,16.2983425 216.712707,15.7458564 C216.574586,15.3314917 216.298343,14.2265193 215.745856,14.7790055 C215.607735,14.9171271 215.469613,15.1933702 215.469613,15.3314917 C215.331492,15.8839779 215.19337,16.2983425 215.055249,16.8508287 C214.640884,18.5082873 214.364641,19.7513812 213.950276,21.1325967 C213.674033,22.2375691 213.39779,23.3425414 213.121547,24.3093923 C212.983425,25 212.707182,26.6574586 212.154696,26.9337017 C211.60221,27.2099448 210.911602,26.6574586 210.635359,26.2430939 C210.220994,25.4143646 210.497238,24.3093923 210.635359,23.480663 C211.049724,21.5469613 211.60221,19.6132597 212.154696,17.5414365 C212.707182,15.7458564 213.535912,13.9502762 213.812155,12.0165746 C213.950276,11.3259669 214.088398,10.4972376 214.779006,10.2209945 C215.469613,9.80662983 216.850829,10.2209945 217.265193,10.7734807 C217.955801,11.6022099 219.337017,16.7127072 219.889503,18.2320442 C220.027624,18.6464088 220.165746,20.5801105 220.994475,19.8895028 C221.270718,19.6132597 222.099448,18.0939227 222.375691,17.679558 C223.066298,16.5745856 223.618785,15.7458564 224.171271,14.5027624 C224.723757,13.2596685 224.861878,11.878453 225.138122,10.6353591 C225.414365,9.66850829 225.828729,7.73480663 227.209945,8.28729282 C227.900552,8.42541436 228.038674,8.83977901 228.176796,9.25414365" id="Shape" sketch:type="MSShapeGroup"></path>
            <path d="M174.309392,12.2928177 L174.723757,12.7071823 C175.138122,13.2596685 175.276243,13.9502762 175.552486,14.640884 C175.690608,14.9171271 176.243094,18.3701657 176.381215,19.3370166 C176.381215,19.4751381 176.519337,19.6132597 176.657459,19.4751381 C177.071823,19.3370166 177.209945,18.9226519 177.624309,18.5082873 C178.453039,17.679558 179.281768,16.7127072 180.110497,15.8839779 C180.801105,15.0552486 181.491713,13.6740331 182.458564,13.121547 C183.287293,12.7071823 184.392265,12.9834254 184.668508,13.6740331 C184.944751,14.2265193 184.944751,14.9171271 184.944751,15.6077348 C184.944751,16.7127072 184.80663,17.9558011 184.668508,19.0607735 C184.530387,19.8895028 184.530387,20.718232 184.392265,21.4088398 C184.392265,22.0994475 184.392265,22.9281768 184.254144,23.6187845 C184.116022,24.1712707 183.977901,24.8618785 183.701657,25.2762431 C183.287293,25.8287293 182.734807,25.4143646 182.320442,25 C181.353591,24.0331492 181.767956,22.2375691 182.044199,21.1325967 C182.18232,20.441989 182.320442,19.6132597 182.458564,18.9226519 C182.458564,18.6464088 182.458564,18.3701657 182.596685,18.0939227 C182.596685,17.8176796 182.734807,17.1270718 182.458564,16.8508287 C182.044199,16.5745856 181.077348,17.8176796 180.939227,17.9558011 C180.38674,18.5082873 179.834254,19.0607735 179.41989,19.7513812 C179.005525,20.3038674 178.453039,20.9944751 178.038674,21.5469613 C177.624309,21.961326 177.071823,22.7900552 176.519337,22.9281768 C175.138122,23.2044199 174.309392,21.4088398 174.171271,20.441989 C174.033149,19.6132597 173.895028,18.7845304 173.895028,18.0939227 C173.895028,17.5414365 173.895028,16.9889503 173.756906,16.4364641 C173.756906,16.160221 173.756906,15.8839779 173.480663,15.8839779 C173.342541,15.7458564 173.066298,15.8839779 172.928177,16.0220994 C172.237569,16.4364641 172.099448,17.2651934 171.685083,17.9558011 C171.270718,18.7845304 170.856354,19.6132597 170.58011,20.441989 C170.027624,21.6850829 169.475138,23.0662983 168.922652,24.3093923 C168.646409,25 168.370166,25.5524862 167.955801,26.2430939 L167.127072,27.9005525 C166.98895,28.1767956 166.712707,28.4530387 166.298343,28.5911602 C165.607735,28.8674033 164.917127,28.3149171 164.917127,27.6243094 C164.779006,27.0718232 165.19337,26.6574586 165.331492,26.1049724 C165.883978,24.7237569 166.850829,23.3425414 167.541436,21.961326 C168.370166,20.1657459 169.060773,18.3701657 169.889503,16.5745856 C170.441989,15.3314917 171.132597,14.0883978 171.961326,12.9834254 C172.237569,12.5690608 172.651934,12.0165746 173.20442,11.878453 C173.342541,11.7403315 173.895028,12.0165746 174.309392,12.2928177" id="Shape" sketch:type="MSShapeGroup"></path>
            <path d="M144.475138,12.0165746 C143.508287,14.9171271 141.98895,17.4033149 140.745856,20.0276243 C140.055249,21.5469613 139.502762,23.2044199 138.950276,24.7237569 C138.535912,26.2430939 138.535912,28.1767956 137.845304,29.558011 C137.707182,29.9723757 137.430939,30.801105 136.878453,30.801105 C136.325967,30.801105 134.944751,31.2154696 135.359116,29.281768 C135.497238,28.8674033 135.635359,28.1767956 135.635359,27.7624309 C135.911602,26.7955801 136.049724,25.8287293 136.325967,24.8618785 C136.60221,23.7569061 136.878453,22.6519337 136.878453,21.5469613 C136.878453,20.441989 136.325967,19.3370166 135.773481,18.3701657 C135.220994,17.4033149 134.392265,16.4364641 133.839779,15.4696133 C133.563536,14.9171271 133.287293,14.5027624 133.149171,13.9502762 L133.149171,13.6740331 C133.287293,13.3977901 133.701657,13.5359116 133.977901,13.5359116 C134.254144,13.5359116 134.668508,13.5359116 134.944751,13.8121547 C135.497238,14.0883978 135.773481,14.9171271 136.049724,15.3314917 C136.464088,16.0220994 136.878453,16.7127072 137.292818,17.5414365 C137.430939,17.679558 137.983425,18.7845304 138.259669,19.3370166 C138.259669,19.4751381 138.535912,19.4751381 138.535912,19.3370166 C138.950276,18.6464088 139.640884,16.8508287 139.917127,16.2983425 C140.331492,15.4696133 140.745856,14.640884 141.160221,13.9502762 C141.298343,13.5359116 141.850829,12.1546961 142.127072,11.878453 C142.403315,11.4640884 142.955801,11.0497238 143.232044,11.0497238 C144.61326,11.0497238 144.61326,11.6022099 144.475138,12.0165746" id="Shape" sketch:type="MSShapeGroup"></path>
            <path d="M91.0220994,14.0883978 C91.2983425,14.5027624 91.4364641,15.6077348 90.8839779,15.8839779 L90.6077348,15.8839779 C88.2596685,15.8839779 85.7734807,16.160221 83.4254144,16.2983425 C83.2872928,16.2983425 83.1491713,16.4364641 83.0110497,16.5745856 C82.320442,18.6464088 82.0441989,20.718232 81.4917127,22.7900552 C81.3535912,23.0662983 81.6298343,23.3425414 81.9060773,23.3425414 L82.320442,23.3425414 C82.7348066,23.3425414 83.1491713,23.2044199 83.5635359,23.2044199 C84.2541436,23.2044199 85.0828729,23.2044199 85.6353591,23.6187845 C86.0497238,23.8950276 86.0497238,24.3093923 85.9116022,24.7237569 C85.7734807,25.2762431 85.359116,25.4143646 84.8066298,25.5524862 C84.2541436,25.6906077 83.5635359,25.6906077 83.0110497,25.8287293 L81.7679558,25.8287293 C81.4917127,25.8287293 81.0773481,25.6906077 80.801105,25.9668508 C80.6629834,26.1049724 80.6629834,26.3812155 80.5248619,26.519337 C80.3867403,27.3480663 80.2486188,28.038674 80.1104972,29.0055249 C80.1104972,29.4198895 79.9723757,30.1104972 80.3867403,30.2486188 C81.9060773,30.2486188 83.5635359,30.3867403 85.0828729,30.2486188 C85.6353591,30.2486188 86.4640884,29.9723757 86.878453,30.2486188 C87.1546961,30.3867403 87.1546961,30.6629834 87.1546961,30.9392265 L87.1546961,31.3535912 C87.0165746,31.6298343 86.878453,31.6298343 86.6022099,31.7679558 C86.3259669,31.9060773 86.0497238,31.9060773 85.7734807,32.0441989 C85.2209945,32.1823204 84.6685083,32.320442 84.1160221,32.320442 C83.0110497,32.4585635 81.9060773,32.4585635 80.6629834,32.4585635 L79.1436464,32.4585635 C78.8674033,32.4585635 78.7292818,32.4585635 78.4530387,32.320442 C78.1767956,32.1823204 78.038674,31.9060773 78.038674,31.7679558 C77.7624309,30.9392265 78.038674,29.9723757 78.1767956,29.1436464 C78.4530387,28.1767956 79.0055249,26.9337017 78.8674033,25.8287293 C78.8674033,25.5524862 78.5911602,25.4143646 78.5911602,25.1381215 C78.4530387,24.8618785 78.4530387,24.5856354 78.5911602,24.3093923 C78.7292818,24.0331492 79.0055249,23.7569061 79.281768,23.6187845 C79.4198895,23.480663 79.558011,23.480663 79.6961326,23.3425414 C79.8342541,23.2044199 80.1104972,21.6850829 80.1104972,21.2707182 C80.3867403,20.0276243 80.5248619,18.7845304 80.6629834,17.4033149 C80.6629834,16.7127072 80.801105,16.0220994 80.801105,15.3314917 C80.801105,14.7790055 80.9392265,14.2265193 81.3535912,13.8121547 C81.6298343,13.5359116 82.320442,13.5359116 82.7348066,13.5359116 C83.9779006,13.5359116 85.0828729,13.5359116 86.3259669,13.3977901 C87.1546961,13.3977901 87.8453039,13.2596685 88.6740331,13.2596685 C89.640884,13.3977901 90.6077348,13.3977901 91.0220994,14.0883978" id="Shape" sketch:type="MSShapeGroup"></path>
            <path d="M201.79558,18.5082873 C201.79558,19.198895 201.79558,19.7513812 201.104972,20.0276243 C200.966851,20.0276243 200.828729,20.1657459 200.690608,20.1657459 C200,20.3038674 199.309392,20.3038674 198.756906,20.441989 C198.342541,20.441989 196.685083,20.718232 197.099448,19.8895028 C197.237569,19.6132597 197.513812,19.4751381 197.651934,19.198895 C197.790055,18.9226519 198.066298,18.5082873 198.20442,18.2320442 C198.618785,17.5414365 199.033149,16.9889503 199.309392,16.2983425 C199.585635,15.8839779 199.861878,15.3314917 200.138122,14.9171271 C200.276243,14.640884 200.552486,14.0883978 200.828729,14.0883978 C201.933702,13.9502762 201.79558,17.5414365 201.79558,18.5082873 L201.79558,18.5082873 Z M204.41989,20.441989 C204.41989,18.9226519 204.281768,17.4033149 204.005525,16.0220994 C203.729282,14.3646409 203.314917,12.8453039 203.176796,11.3259669 C203.176796,10.9116022 203.038674,10.4972376 202.624309,10.2209945 C202.209945,9.94475138 201.519337,10.0828729 201.104972,10.2209945 C200.414365,10.4972376 199.861878,11.4640884 199.585635,12.1546961 C198.895028,13.2596685 198.480663,14.2265193 197.790055,15.3314917 C196.961326,16.4364641 196.270718,17.679558 195.441989,18.7845304 C194.475138,20.1657459 193.78453,21.8232044 192.81768,23.2044199 C192.265193,24.0331492 191.574586,24.5856354 191.160221,25.4143646 C190.883978,25.8287293 190.745856,26.519337 191.022099,26.9337017 C191.298343,27.2099448 191.712707,27.3480663 191.98895,27.3480663 L192.679558,27.3480663 C192.955801,27.2099448 193.232044,26.9337017 193.508287,26.6574586 C193.922652,25.9668508 194.337017,25.1381215 194.751381,24.4475138 C195.027624,24.0331492 195.165746,23.7569061 195.58011,23.480663 C195.994475,23.2044199 196.823204,23.480663 197.237569,23.480663 C198.342541,23.480663 199.447514,23.2044199 200.552486,22.7900552 C200.828729,22.6519337 201.381215,22.2375691 201.657459,22.5138122 C201.79558,22.6519337 201.79558,22.6519337 201.79558,22.7900552 C201.933702,23.480663 201.933702,24.3093923 201.79558,25 C201.79558,25.4143646 201.381215,25.9668508 201.657459,26.3812155 C201.79558,26.6574586 202.071823,26.6574586 202.209945,26.7955801 C202.624309,26.7955801 203.176796,26.7955801 203.59116,26.6574586 C204.281768,26.2430939 204.143646,25 204.143646,24.3093923 C204.281768,22.7900552 204.41989,21.6850829 204.41989,20.441989 L204.41989,20.441989 Z" id="Shape" sketch:type="MSShapeGroup"></path>
            <path d="M18.0939227,27.6243094 C18.0939227,27.7624309 18.2320442,27.7624309 18.2320442,27.6243094 C19.4751381,26.1049724 20.3038674,24.4475138 21.4088398,22.9281768 C22.6519337,21.1325967 24.1712707,20.0276243 25.8287293,18.5082873 C26.2430939,18.2320442 26.9337017,17.5414365 27.4861878,17.679558 C27.7624309,17.679558 27.9005525,17.9558011 28.038674,18.0939227 C28.4530387,18.9226519 28.5911602,20.1657459 28.5911602,21.2707182 C28.7292818,22.3756906 28.7292818,23.3425414 28.7292818,24.4475138 C28.7292818,26.6574586 28.5911602,28.8674033 28.5911602,30.9392265 C28.5911602,32.0441989 28.5911602,33.1491713 28.7292818,34.1160221 C28.7292818,34.8066298 28.5911602,35.7734807 27.7624309,36.0497238 C27.6243094,36.1878453 27.3480663,36.1878453 27.2099448,36.1878453 C26.7955801,31.3535912 27.0718232,19.8895028 26.6574586,20.0276243 C25.8287293,19.8895028 22.5138122,23.6187845 20.8563536,26.1049724 C20.3038674,27.0718232 19.8895028,28.038674 19.3370166,28.8674033 C19.0607735,29.281768 18.7845304,29.6961326 18.5082873,29.9723757 C18.2320442,30.2486188 17.4033149,30.801105 17.1270718,30.3867403 C16.7127072,29.8342541 16.5745856,28.7292818 16.5745856,28.038674 C16.2983425,26.2430939 16.2983425,24.4475138 16.0220994,22.6519337 C15.8839779,21.6850829 15.7458564,20.5801105 15.3314917,19.6132597 C15.1933702,19.3370166 15.1933702,19.198895 14.9171271,19.4751381 C14.7790055,19.6132597 14.640884,19.8895028 14.5027624,20.1657459 C13.6740331,21.2707182 13.6740331,22.6519337 13.3977901,23.8950276 C13.121547,25 12.8453039,25.9668508 12.4309392,26.9337017 C11.6022099,29.1436464 10.359116,31.0773481 9.39226519,33.1491713 C9.25414365,33.2872928 9.25414365,33.4254144 9.1160221,33.5635359 C8.97790055,33.7016575 8.83977901,33.7016575 8.70165746,33.7016575 C8.14917127,33.4254144 8.97790055,31.6298343 9.1160221,31.2154696 C9.53038674,30.3867403 9.94475138,29.558011 10.359116,28.5911602 C11.1878453,26.6574586 11.7403315,24.5856354 12.4309392,22.5138122 C13.121547,20.441989 13.8121547,18.5082873 15.1933702,16.8508287 L15.6077348,16.4364641 C16.5745856,16.160221 17.1270718,18.3701657 17.4033149,18.9226519 C17.8176796,20.441989 17.9558011,22.0994475 18.0939227,23.7569061 C18.0939227,24.4475138 18.2320442,25.1381215 18.2320442,25.8287293 C17.9558011,26.2430939 17.9558011,27.2099448 18.0939227,27.6243094" id="Shape" sketch:type="MSShapeGroup"></path>
            <path d="M49.7237569,24.7237569 C0.138121547,-29.0055249 49.5856354,24.7237569 49.7237569,24.7237569 C49.5856354,24.8618785 49.4475138,24.8618785 49.3093923,24.8618785 L47.0994475,24.8618785 C46.4088398,24.8618785 45.0276243,25 45.0276243,24.7237569 C44.8895028,24.4475138 45.441989,23.8950276 45.5801105,23.6187845 C45.9944751,23.2044199 46.2707182,22.7900552 46.5469613,22.2375691 C47.0994475,21.4088398 47.7900552,20.441989 48.3425414,19.4751381 C48.480663,19.3370166 49.1712707,17.9558011 49.3093923,18.7845304 C49.4475138,19.3370166 49.4475138,20.1657459 49.4475138,20.718232 C49.4475138,21.961326 49.5856354,23.3425414 49.5856354,24.5856354 C49.7237569,24.5856354 49.7237569,24.5856354 49.7237569,24.7237569 L49.7237569,24.7237569 Z M51.9337017,30.2486188 C51.6574586,28.038674 51.519337,25.8287293 51.3812155,23.6187845 C51.2430939,22.3756906 51.2430939,20.9944751 51.2430939,19.7513812 C51.2430939,18.3701657 51.3812155,16.9889503 50.8287293,15.6077348 C50.4143646,14.5027624 49.7237569,15.6077348 49.3093923,16.0220994 C48.8950276,16.5745856 48.3425414,17.1270718 47.9281768,17.679558 C47.0994475,18.7845304 46.2707182,20.0276243 45.5801105,21.2707182 C44.8895028,22.3756906 44.0607735,23.6187845 43.2320442,24.7237569 C42.4033149,24.5856354 41.9889503,25 41.8508287,25.6906077 C41.7127072,26.1049724 41.7127072,26.519337 41.5745856,26.9337017 C41.2983425,27.7624309 40.8839779,28.4530387 40.3314917,29.281768 C39.7790055,30.1104972 39.2265193,31.0773481 38.6740331,32.0441989 C38.121547,33.1491713 37.5690608,34.1160221 37.9834254,35.2209945 C38.9502762,35.2209945 39.2265193,34.2541436 39.640884,33.5635359 C40.1933702,32.4585635 40.7458564,31.3535912 41.4364641,30.1104972 C41.7127072,29.558011 42.1270718,29.0055249 42.4033149,28.5911602 C42.679558,28.3149171 42.9558011,27.4861878 43.3701657,27.3480663 C43.5082873,27.3480663 43.6464088,27.3480663 43.7845304,27.2099448 C45.8563536,27.0718232 47.9281768,26.9337017 50,26.9337017 C50.1381215,26.9337017 50.2762431,27.0718232 50.2762431,27.0718232 C50.6906077,28.5911602 49.8618785,33.5635359 51.2430939,33.839779 C52.6243094,34.2541436 52.0718232,31.0773481 51.9337017,30.2486188 L51.9337017,30.2486188 Z" id="Shape" sketch:type="MSShapeGroup"></path>
            <path d="M248.20442,32.320442 C247.237569,33.2872928 245.441989,33.0110497 244.060773,33.1491713 C240.469613,33.7016575 237.016575,34.1160221 233.425414,34.6685083 C226.933702,35.6353591 220.58011,36.6022099 214.088398,37.4309392 C208.01105,38.2596685 201.933702,39.7790055 195.856354,40.3314917 C190.745856,40.8839779 185.635359,41.0220994 180.524862,40.7458564 C175.414365,40.4696133 170.441989,41.0220994 165.19337,41.5745856 C155.801105,42.4033149 146.270718,42.679558 136.740331,42.5414365 C128.453039,42.4033149 120.303867,43.0939227 112.016575,42.8176796 C104.41989,42.5414365 96.6850829,43.0939227 89.0883978,43.0939227 L80.5248619,43.0939227 C72.6519337,43.2320442 64.9171271,43.9226519 57.0441989,43.9226519 C49.0331492,43.9226519 41.0220994,43.7845304 33.1491713,44.6132597 C30.9392265,44.8895028 27.9005525,44.7513812 26.2430939,45.0276243 C25,45.1657459 23.7569061,45.5801105 22.5138122,45.718232 C18.7845304,46.1325967 15.3314917,45.5801105 11.6022099,46.6850829 C10.4972376,46.961326 9.39226519,47.3756906 8.28729282,47.3756906 C7.18232044,47.3756906 6.07734807,47.7900552 4.97237569,47.7900552 C3.86740331,47.7900552 3.03867403,47.3756906 1.93370166,47.2375691 C1.38121547,47.2375691 0.690607735,46.961326 0.276243094,46.5469613 C4.26325641e-14,46.2707182 4.26325641e-14,45.718232 4.26325641e-14,45.441989 C4.26325641e-14,43.2320442 0.138121547,41.0220994 0.138121547,38.8121547 C0.828729282,37.9834254 1.10497238,37.4309392 2.20994475,37.4309392 C3.03867403,37.4309392 4.00552486,37.8453039 4.83425414,37.5690608 C5.66298343,37.4309392 6.49171271,37.0165746 7.18232044,36.878453 C7.59668508,36.7403315 8.14917127,37.0165746 8.56353591,36.878453 C13.5359116,36.0497238 18.7845304,35.9116022 23.7569061,35.4972376 C29.558011,35.4972376 35.359116,34.2541436 41.160221,33.9779006 C46.961326,33.7016575 52.7624309,33.9779006 58.4254144,34.1160221 C62.5690608,34.1160221 66.7127072,33.5635359 70.8563536,33.4254144 C76.1049724,33.1491713 81.3535912,33.4254144 86.6022099,33.2872928 C91.9889503,33.1491713 97.3756906,32.7348066 102.762431,32.7348066 C109.116022,32.5966851 115.469613,33.1491713 121.961326,32.7348066 C129.281768,32.1823204 136.60221,32.320442 143.922652,32.4585635 C150.414365,32.5966851 156.906077,32.8729282 163.259669,31.4917127 C169.61326,30.2486188 175.828729,30.801105 182.320442,30.801105 C187.292818,30.801105 192.265193,30.801105 197.237569,30.2486188 C199.033149,30.1104972 200.690608,29.4198895 202.486188,29.1436464 C204.143646,28.8674033 205.801105,28.7292818 207.458564,28.4530387 C211.60221,27.6243094 215.607735,27.0718232 219.751381,26.6574586 C221.823204,26.3812155 223.895028,25.9668508 225.966851,25.8287293 C226.79558,25.8287293 227.624309,25.8287293 228.453039,25.5524862 C229.281768,25.4143646 230.110497,24.8618785 230.939227,24.8618785 C233.701657,24.7237569 236.464088,23.6187845 240.055249,23.7569061 C241.298343,23.7569061 244.198895,23.480663 245.303867,23.0662983 C248.20442,22.0994475 248.618785,26.2430939 248.618785,28.1767956 C248.618785,29.281768 248.756906,30.9392265 248.20442,31.9060773 C248.342541,32.0441989 248.342541,32.1823204 248.20442,32.320442" id="Shape" sketch:type="MSShapeGroup"></path>
            <path d="M69.0607735,21.4088398 C68.7845304,24.5856354 66.7127072,28.4530387 63.6740331,29.9723757 C63.121547,30.2486188 62.5690608,29.8342541 62.5690608,29.281768 C62.5690608,27.7624309 62.7071823,26.2430939 62.9834254,24.7237569 C63.3977901,22.9281768 63.9502762,21.1325967 64.2265193,19.3370166 C64.5027624,18.2320442 64.7790055,16.7127072 65.6077348,15.8839779 C65.8839779,15.6077348 66.2983425,15.3314917 66.8508287,15.4696133 C68.0939227,15.7458564 68.2320442,16.7127072 68.6464088,17.679558 C69.0607735,18.9226519 69.198895,20.1657459 69.0607735,21.4088398 L69.0607735,21.4088398 Z M69.6132597,15.4696133 C69.0607735,14.640884 68.0939227,13.6740331 66.7127072,13.6740331 C65.3314917,13.6740331 64.0883978,13.8121547 63.3977901,15.8839779 C63.121547,16.5745856 63.121547,17.5414365 62.8453039,18.3701657 C62.5690608,19.4751381 62.4309392,20.5801105 62.2928177,21.6850829 C61.7403315,23.8950276 61.3259669,26.2430939 60.9116022,28.4530387 C60.7734807,29.0055249 60.7734807,29.6961326 60.6353591,30.2486188 C60.6353591,30.6629834 60.359116,31.4917127 60.359116,31.7679558 C60.6353591,32.5966851 61.878453,33.1491713 62.7071823,33.0110497 C63.6740331,32.8729282 64.7790055,31.7679558 65.6077348,31.2154696 C67.8176796,29.281768 70.1657459,26.7955801 70.8563536,23.8950276 C71.2707182,20.9944751 71.1325967,17.8176796 69.6132597,15.4696133 L69.6132597,15.4696133 Z" id="Shape" sketch:type="MSShapeGroup"></path>
            <path d="M122.651934,27.0718232 C122.513812,27.7624309 121.961326,28.1767956 120.994475,28.1767956 C120.165746,28.3149171 119.475138,28.3149171 118.646409,28.038674 C118.508287,28.038674 118.370166,27.9005525 118.232044,27.9005525 C118.093923,27.7624309 118.093923,27.6243094 118.093923,27.3480663 L118.093923,26.3812155 C118.093923,25.8287293 118.232044,25.4143646 118.370166,24.8618785 C118.370166,24.5856354 118.370166,24.3093923 118.508287,24.0331492 C118.508287,23.6187845 118.646409,22.9281768 118.646409,22.9281768 L119.198895,22.9281768 C119.61326,22.9281768 119.751381,23.0662983 120.027624,23.0662983 C120.58011,23.2044199 121.132597,23.6187845 121.546961,23.8950276 C122.099448,24.4475138 122.375691,25.4143646 122.513812,26.2430939 C122.651934,26.519337 122.651934,26.7955801 122.651934,27.0718232 L122.651934,27.0718232 Z M119.475138,19.0607735 C119.337017,18.9226519 119.198895,18.6464088 119.198895,18.5082873 C119.337017,17.679558 119.475138,16.9889503 119.61326,16.2983425 C119.751381,15.7458564 120.027624,15.3314917 120.303867,14.9171271 L120.303867,14.7790055 C120.58011,14.3646409 120.718232,14.2265193 121.132597,14.2265193 L121.961326,14.2265193 C122.790055,14.2265193 123.20442,14.3646409 123.480663,14.640884 C123.618785,14.7790055 123.756906,15.0552486 123.756906,15.1933702 L123.756906,15.6077348 C123.756906,16.4364641 123.480663,17.1270718 122.928177,17.8176796 C122.375691,18.5082873 121.546961,18.9226519 120.441989,19.198895 C120.027624,19.3370166 119.61326,19.3370166 119.475138,19.0607735 L119.475138,19.0607735 Z M125.690608,16.7127072 C125.828729,15.8839779 125.690608,15.0552486 125.414365,14.2265193 C125.276243,13.8121547 125,13.2596685 124.585635,12.9834254 C124.447514,12.9834254 124.447514,12.8453039 124.309392,12.8453039 C123.480663,12.4309392 122.237569,12.4309392 121.823204,12.4309392 C119.060773,12.4309392 118.508287,14.2265193 117.679558,17.2651934 C117.541436,17.9558011 117.265193,18.5082873 117.127072,19.0607735 C116.98895,19.198895 116.98895,19.4751381 116.850829,19.6132597 C116.574586,20.441989 116.574586,21.4088398 116.712707,22.3756906 L116.712707,22.5138122 C116.712707,23.0662983 116.850829,23.7569061 116.712707,24.3093923 C116.712707,24.5856354 116.574586,24.8618785 116.574586,25.1381215 C116.574586,25.4143646 116.436464,25.6906077 116.436464,25.9668508 C116.436464,26.2430939 116.436464,26.519337 116.298343,26.7955801 C116.160221,27.9005525 116.022099,29.0055249 116.436464,30.2486188 C116.574586,30.5248619 116.850829,30.6629834 117.127072,30.801105 C117.679558,30.9392265 118.370166,30.9392265 118.922652,30.9392265 C121.546961,30.9392265 123.618785,29.9723757 124.585635,28.1767956 C125.690608,26.2430939 124.861878,23.7569061 122.651934,21.8232044 L122.375691,21.5469613 L122.790055,21.2707182 C124.033149,20.5801105 125.414365,18.6464088 125.690608,16.7127072 L125.690608,16.7127072 Z" id="Shape" sketch:type="MSShapeGroup"></path>
        </g>
    </g>
</svg>