<?xml version="1.0" encoding="UTF-8" standalone="no"?>
<svg width="250px" height="29px" viewBox="0 0 250 29" version="1.1" xmlns="http://www.w3.org/2000/svg" xmlns:xlink="http://www.w3.org/1999/xlink" xmlns:sketch="http://www.bohemiancoding.com/sketch/ns">
    <!-- Generator: Sketch 3.4.2 (15855) - http://www.bohemiancoding.com/sketch -->
    <title>nuffield-health</title>
    <desc>Created with Sketch.</desc>
    <defs>
        <path id="path-1" d="M0.052821053,0.200720001 L249.548663,0.200720001 L249.548663,28.8860732 L0.052821053,28.8860732"></path>
    </defs>
    <g id="Page-1" stroke="none" stroke-width="1" fill="none" fill-rule="evenodd" sketch:type="MSPage">
        <g id="nuffield-health" sketch:type="MSLayerGroup">
            <g id="Group">
                <g id="Clipped">
                    <mask id="mask-2" sketch:name="a" fill="white">
                        <use xlink:href="#path-1"></use>
                    </mask>
                    <g id="a"></g>
                    <path d="M0,10.7913411 L10.183899,10.7913411 L10.183899,0.200720001 C7.67225794,0.369747371 3.66666143,0.878590181 0,2.30475861 L0,10.7913411 M0,16.3252268 C0,23.9296977 6.45033092,27.4933581 10.183899,28.8860732 L10.183899,15.7142633 L0,15.7142633 L0,16.3252268" id="Shape" fill="#0DA448" sketch:type="MSShapeGroup" mask="url(#mask-2)"></path>
                </g>
                <path d="M15.3445159,10.7913411 L25.5284149,10.7913411 L25.5284149,2.30475861 C21.8617535,0.878590181 17.8904906,0.369747371 15.3445159,0.200720001 L15.3445159,10.7913411 L15.3445159,10.7913411 Z M15.3445159,28.8860732 C19.0772036,27.4933581 25.5284149,23.9296977 25.5284149,16.3252268 L25.5284149,15.7142633 L15.3445159,15.7142633 L15.3445159,28.8860732 L15.3445159,28.8860732 Z M50.615774,18.2936913 L35.4077125,3.52844634 L35.4077125,27.9687475 L39.7865778,27.9687475 L39.7865778,14.0504001 L54.9955196,28.6818318 L54.9955196,4.20543617 L50.615774,4.20543617 L50.615774,18.2936913 L50.615774,18.2936913 Z M96.9882567,6.37814214 L99.8053796,9.19526497 L102.622502,6.37814214 L99.8053796,3.56101932 L96.9882567,6.37814214 L96.9882567,6.37814214 Z M93.8304381,7.70307022 C94.3058276,7.70307022 95.3243936,7.80431057 96.1052648,7.97421829 L95.6298753,3.93340774 C94.7477637,3.76350002 93.9325588,3.695713 93.0504472,3.695713 C89.1460911,3.695713 87.0077188,5.80151232 86.9055981,10.4189527 L81.067111,10.4189527 L81.067111,9.84056217 C81.067111,8.21191303 81.8814356,7.70307022 83.6817531,7.70307022 C84.1571426,7.70307022 85.1739479,7.80431057 85.9548191,7.97421829 L85.4794296,3.93340774 C84.5973181,3.76350002 83.7821131,3.695713 82.9000016,3.695713 C78.9956454,3.695713 76.8572731,5.80151232 76.7551524,10.4189527 L75.1934099,10.4189527 L74.413419,14.3893352 L76.7551524,14.3893352 L76.7551524,27.9687475 L81.067111,27.9687475 L81.067111,14.3902155 L86.9055981,14.3902155 L86.9055981,27.9687475 L91.2166763,27.9687475 L91.2166763,14.3902155 L95.8341167,14.3902155 L95.8341167,10.419833 L91.215796,10.419833 L91.215796,9.84056217 C91.215796,8.21191303 92.0310009,7.70307022 93.8304381,7.70307022 L93.8304381,7.70307022 Z M68.8117464,22.4022889 C68.2342362,23.2509472 66.7411611,24.3707535 64.9073902,24.3707535 C63.4134348,24.3707535 61.8525727,23.895364 61.8525727,21.1794815 L61.8525727,10.4189527 L57.5388533,10.4189527 L57.5388533,22.1302605 C57.5388533,26.6112465 60.3911902,28.3076826 64.0243983,28.3076826 C66.502586,28.3076826 68.0652088,27.2556633 68.9129867,26.5769128 L68.9129867,27.9678672 L73.121064,27.9678672 L73.121064,10.4189527 L68.810866,10.4189527 L68.810866,22.4022889 L68.8117464,22.4022889 Z M97.6335539,10.4189527 L101.944632,10.4189527 L101.944632,27.9687475 L97.6335539,27.9687475 L97.6335539,10.4189527 L97.6335539,10.4189527 Z M227.379667,20.6028517 L227.379667,14.3902155 L231.895867,14.3902155 L231.895867,10.419833 L227.379667,10.419833 L227.379667,5.42824354 L223.068589,5.97142004 L223.068589,10.4189527 L221.507727,10.4189527 L220.726855,14.3893352 L223.068589,14.3893352 L223.068589,21.2824826 C223.068589,25.9659493 224.292276,28.240776 229.315559,28.240776 C229.926522,28.240776 230.910754,28.1721086 231.725079,28.0030812 L232.233922,23.8944837 C231.487384,24.1321784 230.468818,24.2342991 229.925642,24.2342991 C227.922843,24.2342991 227.378787,23.6902422 227.378787,20.601091 L227.379667,20.6028517 Z M215.159516,27.9687475 L219.470595,27.9687475 L219.470595,3.96774143 L215.158636,4.51179827 L215.158636,27.9687475 L215.159516,27.9687475 Z M108.360629,19.482165 C108.258509,16.5629215 109.989279,13.8479194 113.588153,13.8479194 C115.049535,13.8479194 116.167581,14.5610036 116.609517,15.7142633 L108.360629,19.482165 L108.360629,19.482165 Z M113.486913,10.0800176 C107.817453,10.0800176 103.982644,14.1181871 103.982644,19.414378 C103.982644,24.2351794 107.139583,28.37635 113.351339,28.37635 C116.271462,28.37635 118.613196,27.6280517 121.023597,26.2370974 L119.700429,22.5044096 C117.731965,23.827577 115.932527,24.5732342 113.692034,24.5732342 C111.926931,24.5732342 110.535096,24.1665121 109.51653,23.0467058 L121.566773,17.5462734 C120.718115,12.5564446 118.001352,10.0782569 113.487793,10.0782569 L113.486913,10.0800176 Z M243.098332,10.0800176 C240.857839,10.0800176 239.33043,10.7913411 238.243197,11.5730927 L238.243197,3.96686108 L233.932119,4.51267862 L233.932119,27.9687475 L238.243197,27.9687475 L238.243197,15.916744 C238.956281,15.0363931 240.347235,14.0169468 242.011099,14.0169468 C243.539388,14.0169468 245.236704,14.3902155 245.236704,17.0717643 L245.236704,27.9687475 L249.548663,27.9687475 L249.548663,16.4608008 C249.548663,11.6399994 246.220937,10.0782569 243.098332,10.0782569 L243.098332,10.0800176 Z M208.301583,22.741224 C207.928314,23.1144928 206.298785,24.4728742 203.889264,24.4728742 C201.885586,24.4728742 201.072142,23.4868812 201.072142,22.3670749 C201.072142,20.9074531 201.919919,20.1265819 204.295987,20.1265819 C205.993303,20.1265819 207.69062,20.7709987 208.301583,21.2129349 L208.301583,22.7403436 L208.301583,22.741224 Z M205.110311,10.0791373 C203.074059,10.0791373 201.003474,10.4515257 199.203157,11.0968229 L198.355379,15.1693261 C199.815001,14.4914559 202.225401,13.7783717 204.398107,13.7783717 C206.944082,13.7783717 208.301583,14.5926962 208.301583,16.6976152 L208.301583,17.4784864 C206.875415,16.7319489 205.280219,16.4599205 203.685023,16.4599205 C199.747213,16.4599205 196.658062,18.1915706 196.658062,22.3318608 C196.658062,25.5240131 198.999796,28.3068023 203.107513,28.3068023 C205.95985,28.3068023 207.588499,27.1887567 208.36937,26.4070051 L208.36937,27.9678672 L212.612661,27.9678672 L212.612661,17.3094591 C212.612661,13.4051029 211.221707,10.0791373 205.109431,10.0791373 L205.110311,10.0791373 Z M143.156498,22.1980475 C142.035811,23.3513072 140.541856,24.3373001 138.437817,24.3373001 C135.347786,24.3373001 134.058952,21.9268994 134.058952,19.3122573 C134.058952,16.3586801 135.619814,14.0512804 138.674632,14.0512804 C140.643977,14.0512804 142.204839,15.1041801 143.155618,16.3595605 L143.155618,22.1989279 L143.156498,22.1980475 Z M143.156498,11.6399994 C142.30784,10.9621292 140.779551,10.0791373 138.335697,10.0791373 C133.414535,10.0791373 129.611419,13.5063432 129.611419,19.1423496 C129.611419,25.4896795 133.481442,28.3068023 137.657826,28.3068023 C140.338495,28.3068023 142.035811,27.4590244 143.224285,26.3726714 L143.224285,27.9678672 L147.467576,27.9678672 L147.467576,3.96774143 L143.156498,4.51179827 L143.156498,11.6399994 L143.156498,11.6399994 Z M123.263209,27.9687475 L127.575168,27.9687475 L127.575168,3.96774143 L123.263209,4.51179827 L123.263209,27.9687475 L123.263209,27.9687475 Z M171.876185,13.6102246 L161.454591,13.6102246 L161.454591,4.20455582 L157.041392,4.20455582 L157.041392,27.9687475 L161.454591,27.9687475 L161.454591,17.8535159 L171.876185,17.8535159 L171.876185,27.9687475 L176.289384,27.9687475 L176.289384,4.20543617 L171.875305,4.20543617 L171.875305,13.6102246 L171.876185,13.6102246 Z M182.807502,19.482165 C182.705381,16.5629215 184.436151,13.8479194 188.035025,13.8479194 C189.496408,13.8479194 190.616214,14.5610036 191.05727,15.7142633 L182.808382,19.482165 L182.807502,19.482165 Z M187.932905,10.0800176 C182.263445,10.0800176 178.427756,14.1181871 178.427756,19.414378 C178.427756,24.2351794 181.584694,28.37635 187.797331,28.37635 C190.717454,28.37635 193.060068,27.6280517 195.470469,26.2370974 L194.146421,22.5044096 C192.177957,23.827577 190.378519,24.5732342 188.138026,24.5732342 C186.372923,24.5732342 184.981088,24.1665121 183.962522,23.0467058 L196.014526,17.5462734 C195.164987,12.5564446 192.449105,10.0782569 187.932905,10.0782569 L187.932905,10.0800176 Z" id="Shape" fill="#0DA448" sketch:type="MSShapeGroup"></path>
            </g>
        </g>
    </g>
</svg>