<?xml version="1.0" encoding="UTF-8" standalone="no"?>
<svg width="250px" height="138px" viewBox="0 0 250 138" version="1.1" xmlns="http://www.w3.org/2000/svg" xmlns:xlink="http://www.w3.org/1999/xlink" xmlns:sketch="http://www.bohemiancoding.com/sketch/ns">
    <!-- Generator: Sketch 3.4.2 (15855) - http://www.bohemiancoding.com/sketch -->
    <title>uu</title>
    <desc>Created with Sketch.</desc>
    <defs></defs>
    <g id="Page-1" stroke="none" stroke-width="1" fill="none" fill-rule="evenodd" sketch:type="MSPage">
        <g id="uu" sketch:type="MSLayerGroup">
            <g id="Group" sketch:type="MSShapeGroup">
                <g transform="translate(91.666667, 53.205128)" id="Shape" fill="#1A2A4F">
                    <g>
                        <path d="M19.8224359,24.7115385 C17.8519231,26.4198718 15.1230769,27.2826923 11.6474359,27.2826923 C8.11858974,27.2826923 5.38717949,26.425641 3.45512821,24.7230769 C1.51923077,23.025641 0.550641026,20.3967949 0.550641026,16.8410256 L0.550641026,0.630769231 L6.28717949,0.630769231 L6.28717949,16.8410256 C6.28717949,17.5474359 6.34294872,18.2397436 6.46666667,18.9211538 C6.58269231,19.6070513 6.84230769,20.2102564 7.23012821,20.7275641 C7.61730769,21.2512821 8.16474359,21.6788462 8.85576923,22.0089744 C9.54935897,22.3333333 10.4820513,22.4961538 11.6467949,22.4961538 C13.6935897,22.4961538 15.1,22.0423077 15.8794872,21.1358974 C16.6615385,20.2160256 17.049359,18.7910256 17.049359,16.8410256 L17.049359,0.630769231 L22.7801282,0.630769231 L22.7801282,16.8410256 C22.7807692,20.3705128 21.7961538,22.9935897 19.8224359,24.7115385 L19.8224359,24.7115385 Z"></path>
                        <path d="M30.4974359,0.630769231 L30.4974359,26.6987179 L25.3121795,26.6987179 L25.3121795,0.630769231 L30.4974359,0.630769231 L30.4974359,0.630769231 Z"></path>
                        <path d="M37.9019231,22.0089744 C38.1307692,22.4057692 38.4288462,22.7352564 38.7967949,22.9935897 C39.1570513,23.2467949 39.5775641,23.4352564 40.0557692,23.5576923 C40.525,23.6801282 41.0237179,23.7384615 41.5314103,23.7384615 C41.8967949,23.7384615 42.2801282,23.7 42.6820513,23.6096154 C43.0833333,23.5262821 43.4480769,23.3942308 43.7737179,23.2141026 C44.1044872,23.025641 44.3833333,22.7871795 44.599359,22.4820513 C44.8192308,22.1782051 44.9301282,21.7974359 44.9301282,21.3307692 C44.9301282,20.5532051 44.4121795,19.9698718 43.375,19.5807692 C42.3403846,19.1929487 40.8974359,18.8038462 39.0519231,18.4083333 C38.2980769,18.2391026 37.5583333,18.0391026 36.8423077,17.8070513 C36.125,17.5801282 35.4878205,17.2762821 34.9269231,16.9 C34.3660256,16.5179487 33.9166667,16.0448718 33.5737179,15.4692308 C33.2333333,14.8987179 33.0647436,14.200641 33.0647436,13.3769231 C33.0647436,12.1602564 33.299359,11.1628205 33.7730769,10.3794872 C34.2474359,9.60192308 34.8775641,8.98589744 35.6564103,8.53910256 C36.4314103,8.08653846 37.3134615,7.76923077 38.2858974,7.58846154 C39.2570513,7.40641026 40.2551282,7.31602564 41.2769231,7.31602564 C42.3019231,7.31602564 43.2935897,7.41282051 44.2564103,7.60833333 C45.2141026,7.8025641 46.0705128,8.13205128 46.8269231,8.59230769 C47.5788462,9.05897436 48.2070513,9.67435897 48.7089744,10.4391026 C49.2051282,11.2019231 49.5064103,12.1737179 49.599359,13.3391026 L44.6737179,13.3391026 C44.600641,12.3429487 44.2205128,11.6628205 43.5435897,11.3121795 C42.8628205,10.9621795 42.0532051,10.7871795 41.1346154,10.7871795 C40.8429487,10.7871795 40.524359,10.800641 40.1833333,10.8391026 C39.8384615,10.8717949 39.5326923,10.9564103 39.2532051,11.0788462 C38.9724359,11.1967949 38.7352564,11.3782051 38.5397436,11.6038462 C38.3461538,11.8365385 38.2487179,12.1487179 38.2487179,12.5371795 C38.2487179,12.9967949 38.4185897,13.3782051 38.7621795,13.6698718 C39.100641,13.9615385 39.5410256,14.1948718 40.0935897,14.3769231 C40.6403846,14.5641026 41.2641026,14.725641 41.9717949,14.8685897 C42.6788462,15.0179487 43.3974359,15.1801282 44.1224359,15.3480769 C44.8794872,15.5166667 45.6173077,15.724359 46.3346154,15.9705128 C47.049359,16.2096154 47.6935897,16.5339744 48.2519231,16.9352564 C48.8121795,17.3371795 49.2589744,17.8352564 49.599359,18.4307692 C49.9416667,19.0275641 50.1115385,19.7653846 50.1115385,20.6403846 C50.1115385,21.8839744 49.8647436,22.9198718 49.3628205,23.7608974 C48.8653846,24.6032051 48.2115385,25.2782051 47.4102564,25.7891026 C46.6076923,26.3 45.6871795,26.6570513 44.6532051,26.8634615 C43.6224359,27.0724359 42.5711538,27.174359 41.4967949,27.174359 C40.400641,27.174359 39.3301282,27.0653846 38.2858974,26.8435897 C37.2365385,26.6301282 36.3089744,26.2608974 35.4910256,25.749359 C34.6782051,25.2391026 34.0076923,24.5647436 33.4878205,23.7237179 C32.9628205,22.8878205 32.6775641,21.8307692 32.625641,20.5698718 L37.5519231,20.5698718 C37.5512821,21.1294872 37.6673077,21.6076923 37.9019231,22.0089744 L37.9019231,22.0089744 Z"></path>
                        <path d="M51.8262821,2.16666667 L57.0128205,2.16666667 L57.0128205,7.82692308 L60.8096154,7.82692308 L60.8096154,11.2910256 L57.0128205,11.2910256 L57.0128205,20.6371795 C57.0128205,21.5166667 57.1557692,22.0942308 57.4512821,22.3916667 C57.7423077,22.6839744 58.325,22.8320513 59.2019231,22.8320513 C59.4948718,22.8320513 59.7737179,22.8205128 60.0423077,22.7948718 C60.3089744,22.7679487 60.5647436,22.7358974 60.8096154,22.6839744 L60.8096154,26.699359 C60.3711538,26.7698718 59.8846154,26.8217949 59.3487179,26.8410256 C58.8153846,26.8679487 58.2903846,26.8807692 57.7769231,26.8807692 C56.9769231,26.8807692 56.2141026,26.8288462 55.4974359,26.7198718 C54.7788462,26.6012821 54.1435897,26.3935897 53.6025641,26.0769231 C53.05,25.7596154 52.6185897,25.3134615 52.3070513,24.7237179 C51.9871795,24.1410256 51.8262821,23.3762821 51.8262821,22.424359 L51.8262821,2.16666667 L51.8262821,2.16666667 Z"></path>
                        <path d="M67.6519231,22.1711538 C68.4339744,22.9237179 69.550641,23.3057692 71.0102564,23.3057692 C72.0596154,23.3057692 72.9589744,23.0397436 73.7089744,22.5224359 C74.4660256,21.9967949 74.9269231,21.4410256 75.099359,20.8570513 L79.6615385,20.8570513 C78.9320513,23.124359 77.8128205,24.7352564 76.300641,25.7147436 C74.7929487,26.6858974 72.9692308,27.1705128 70.8301282,27.1705128 C69.3448718,27.1705128 68.0051282,26.9378205 66.8141026,26.4653846 C65.6185897,25.9871795 64.6102564,25.3121795 63.7858974,24.4378205 C62.9519231,23.5570513 62.3173077,22.5083333 61.8653846,21.2974359 C61.4128205,20.0737179 61.1916667,18.7371795 61.1916667,17.2814103 C61.1916667,15.8685897 61.4230769,14.5544872 61.8858974,13.3371795 C62.3467949,12.1205128 63.0044872,11.0705128 63.8602564,10.1762821 C64.7070513,9.28910256 65.7237179,8.58974359 66.9051282,8.07884615 C68.0826923,7.56730769 69.3923077,7.31410256 70.8294872,7.31410256 C72.4346154,7.31410256 73.8326923,7.62564103 75.0269231,8.24679487 C76.2153846,8.86282051 77.199359,9.69807692 77.9660256,10.7467949 C78.7269231,11.7961538 79.2865385,12.9871795 79.6217949,14.3217949 C79.9666667,15.6621795 80.0891026,17.0628205 79.9878205,18.5179487 L66.375,18.5179487 C66.4474359,20.2025641 66.875641,21.4141026 67.6519231,22.1711538 L67.6519231,22.1711538 Z M73.5108974,12.2371795 C72.8865385,11.5628205 71.949359,11.2198718 70.6846154,11.2198718 C69.8576923,11.2198718 69.1653846,11.3621795 68.6198718,11.6410256 C68.0685897,11.9185897 67.6365385,12.2685897 67.3051282,12.6833333 C66.9794872,13.0910256 66.7455128,13.5307692 66.6128205,13.9916667 C66.4794872,14.4589744 66.3980769,14.8653846 66.375,15.2346154 L74.8076923,15.2346154 C74.5634615,13.9205128 74.1307692,12.9230769 73.5108974,12.2371795 L73.5108974,12.2371795 Z"></path>
                        <path d="M86.6198718,7.82628205 L86.6198718,11.3294872 L86.6903846,11.3294872 C86.9346154,10.7467949 87.2615385,10.2038462 87.6782051,9.70512821 C88.0935897,9.20576923 88.5679487,8.77948718 89.1,8.42948718 C89.6371795,8.07948718 90.2070513,7.80128205 90.8173077,7.60705128 C91.4237179,7.41153846 92.0576923,7.31474359 92.7185897,7.31474359 C93.0544872,7.31474359 93.4294872,7.3724359 93.8455128,7.49615385 L93.8455128,12.3153846 C93.6038462,12.2698718 93.3147436,12.224359 92.9685897,12.1852564 C92.6314103,12.1532051 92.3019231,12.1326923 91.9858974,12.1326923 C91.0365385,12.1326923 90.2352564,12.2897436 89.5788462,12.6064103 C88.9205128,12.9230769 88.3916667,13.3576923 87.9871795,13.9012821 C87.5858974,14.4519231 87.3,15.0858974 87.1288462,15.8185897 C86.9602564,16.5519231 86.8762821,17.3403846 86.8762821,18.1897436 L86.8762821,26.6987179 L81.6884615,26.6987179 L81.6884615,7.82692308 L86.6198718,7.82692308 L86.6198718,7.82628205 Z"></path>
                    </g>
                    <g transform="translate(0.000000, 29.487179)">
                        <path d="M19.8224359,24.6897436 C17.8519231,26.4057692 15.1230769,27.2602564 11.6474359,27.2602564 C8.11858974,27.2602564 5.38717949,26.4057692 3.45512821,24.7096154 C1.51923077,23.000641 0.550641026,20.3762821 0.550641026,16.8217949 L0.550641026,0.612179487 L6.28717949,0.612179487 L6.28717949,16.8217949 C6.28717949,17.5275641 6.34294872,18.2198718 6.46666667,18.899359 C6.58717949,19.5801282 6.84230769,20.1891026 7.23012821,20.7064103 C7.61730769,21.2314103 8.16474359,21.6589744 8.85576923,21.9826923 C9.54935897,22.3128205 10.4820513,22.4820513 11.6467949,22.4820513 C13.6935897,22.4820513 15.1,22.0205128 15.8794872,21.1083333 C16.6615385,20.1935897 17.049359,18.7641026 17.049359,16.8211538 L17.049359,0.611538462 L22.7801282,0.611538462 L22.7801282,16.8211538 C22.7807692,20.3525641 21.7961538,22.9698718 19.8224359,24.6897436 L19.8224359,24.6897436 Z"></path>
                        <path d="M30.2307692,7.80705128 L30.2307692,10.4352564 L30.3384615,10.4352564 C30.9955128,9.34166667 31.8525641,8.53782051 32.8961538,8.03974359 C33.9391026,7.54230769 35.0160256,7.29487179 36.1083333,7.29487179 C37.4948718,7.29487179 38.6339744,7.48333333 39.5217949,7.85961538 C40.4102564,8.24038462 41.1083333,8.75897436 41.6211538,9.425 C42.1314103,10.099359 42.4891026,10.9160256 42.6942308,11.8737179 C42.9019231,12.8371795 43.0089744,13.899359 43.0089744,15.0653846 L43.0089744,26.6788462 L37.8205128,26.6788462 L37.8205128,16.0179487 C37.8205128,14.4628205 37.5788462,13.2987179 37.0923077,12.5339744 C36.6076923,11.7641026 35.7416667,11.3807692 34.5051282,11.3807692 C33.0916667,11.3807692 32.0685897,11.8012821 31.4320513,12.6448718 C30.800641,13.4801282 30.4839744,14.8596154 30.4839744,16.7833333 L30.4839744,26.6788462 L25.3025641,26.6788462 L25.3025641,7.80769231 L30.2307692,7.80769231 L30.2307692,7.80705128 Z"></path>
                        <path d="M45.4794872,4.88525641 L45.4794872,0.612179487 L50.6660256,0.612179487 L50.6660256,4.88525641 L45.4794872,4.88525641 L45.4794872,4.88525641 Z M50.6660256,7.80705128 L50.6660256,26.6782051 L45.4794872,26.6782051 L45.4794872,7.80705128 L50.6660256,7.80705128 L50.6660256,7.80705128 Z"></path>
                        <path d="M58.3724359,26.6788462 L51.9115385,7.80769231 L57.3487179,7.80769231 L61.3307692,20.6942308 L61.400641,20.6942308 L65.3814103,7.80769231 L70.5288462,7.80769231 L64.1410256,26.6788462 L58.3724359,26.6788462 L58.3724359,26.6788462 Z"></path>
                        <path d="M76.0762821,22.1519231 C76.8544872,22.900641 77.974359,23.2839744 79.4352564,23.2839744 C80.4807692,23.2839744 81.3782051,23.0185897 82.1358974,22.4935897 C82.8903846,21.9769231 83.3525641,21.4192308 83.5237179,20.8378205 L88.0871795,20.8378205 C87.3576923,23.0967949 86.2391026,24.7160256 84.7275641,25.6948718 C83.2173077,26.6685897 81.3929487,27.150641 79.2551282,27.150641 C77.7692308,27.150641 76.4307692,26.9166667 75.2371795,26.4371795 C74.0442308,25.9679487 73.0352564,25.2871795 72.2064103,24.4115385 C71.3782051,23.5391026 70.7442308,22.4903846 70.2897436,21.2762821 C69.8391026,20.0589744 69.6166667,18.7192308 69.6166667,17.2557692 C69.6166667,15.8487179 69.8448718,14.5352564 70.3102564,13.3179487 C70.7692308,12.1 71.4301282,11.0429487 72.2820513,10.1576923 C73.1314103,9.26923077 74.15,8.57115385 75.3282051,8.05833333 C76.5070513,7.54807692 77.8153846,7.29487179 79.2544872,7.29487179 C80.8589744,7.29487179 82.2576923,7.60448718 83.4487179,8.22820513 C84.6416667,8.84230769 85.6237179,9.6775641 86.3903846,10.7275641 C87.1564103,11.7705128 87.7083333,12.9608974 88.049359,14.300641 C88.3910256,15.6429487 88.5147436,17.0423077 88.4173077,18.499359 L74.7980769,18.499359 C74.8679487,20.175641 75.2948718,21.4 76.0762821,22.1519231 L76.0762821,22.1519231 Z M81.9365385,12.2230769 C81.3153846,11.5429487 80.3737179,11.199359 79.1044872,11.199359 C78.2788462,11.199359 77.5929487,11.3435897 77.0423077,11.6147436 C76.4935897,11.8980769 76.0570513,12.2429487 75.7314103,12.6564103 C75.4019231,13.0705128 75.1660256,13.5121795 75.0378205,13.9724359 C74.9019231,14.4378205 74.8262821,14.8519231 74.7987179,15.2141026 L83.2352564,15.2141026 C82.9865385,13.899359 82.5564103,12.9032051 81.9365385,12.2230769 L81.9365385,12.2230769 Z"></path>
                        <path d="M94.6282051,7.80705128 L94.6282051,11.3102564 L94.7,11.3102564 C94.9461538,10.7275641 95.2724359,10.1814103 95.6891026,9.68397436 C96.0974359,9.18717949 96.575641,8.75897436 97.1096154,8.40833333 C97.6467949,8.0525641 98.2205128,7.78012821 98.8288462,7.58653846 C99.4346154,7.39294872 100.066667,7.29487179 100.726282,7.29487179 C101.066026,7.29487179 101.442308,7.3525641 101.85641,7.47564103 L101.85641,12.2955128 C101.613462,12.2442308 101.322436,12.2032051 100.982692,12.1660256 C100.639103,12.1333333 100.310897,12.1134615 99.9974359,12.1134615 C99.0461538,12.1134615 98.2423077,12.2679487 97.5903846,12.5852564 C96.9301282,12.9038462 96.4012821,13.3378205 96,13.8814103 C95.5974359,14.4314103 95.3102564,15.0653846 95.1397436,15.7980769 C94.9698718,16.5301282 94.8852564,17.3205128 94.8852564,18.175 L94.8852564,26.6788462 L89.7012821,26.6788462 L89.7012821,7.80769231 L94.6282051,7.80769231 L94.6282051,7.80705128 Z"></path>
                        <path d="M107.88141,21.9826923 C108.109615,22.3897436 108.413462,22.7147436 108.775641,22.9692308 C109.141667,23.224359 109.560256,23.4147436 110.035256,23.5384615 C110.512179,23.6596154 111.005128,23.7173077 111.516667,23.7173077 C111.878205,23.7173077 112.262821,23.6788462 112.667949,23.5955128 C113.063462,23.5121795 113.430769,23.375 113.761538,23.1865385 C114.087179,23.0128205 114.361538,22.7660256 114.582051,22.4615385 C114.797436,22.1576923 114.90641,21.775641 114.90641,21.3096154 C114.90641,20.5333333 114.385897,19.9480769 113.35641,19.5608974 C112.324359,19.1717949 110.883974,18.7833333 109.033333,18.3878205 C108.278205,18.2185897 107.545513,18.0192308 106.825,17.7871795 C106.108974,17.5589744 105.467308,17.2544872 104.904487,16.8724359 C104.350641,16.4961538 103.895513,16.024359 103.560897,15.4480769 C103.217308,14.8769231 103.045513,14.1769231 103.045513,13.3557692 C103.045513,12.1391026 103.285897,11.1416667 103.758974,10.3551282 C104.230769,9.57884615 104.853846,8.96410256 105.637179,8.50961538 C106.419231,8.07051282 107.289744,7.7525641 108.264103,7.56474359 C109.239103,7.38333333 110.235897,7.29230769 111.261538,7.29230769 C112.282692,7.29230769 113.270513,7.39038462 114.232051,7.58397436 C115.191667,7.7775641 116.05,8.10769231 116.807051,8.56923077 C117.560897,9.03461538 118.191026,9.64358974 118.685256,10.4134615 C119.183974,11.1788462 119.485897,12.1429487 119.582692,13.3153846 L114.654487,13.3153846 C114.582692,12.3179487 114.200641,11.6442308 113.519872,11.2884615 C112.842308,10.9314103 112.037821,10.7621795 111.110897,10.7621795 C110.819872,10.7621795 110.502564,10.7762821 110.163462,10.8141026 C109.822436,10.8487179 109.510897,10.9320513 109.23141,11.0480769 C108.955128,11.1730769 108.712821,11.3448718 108.522436,11.5801282 C108.323718,11.8134615 108.229487,12.1237179 108.229487,12.5115385 C108.229487,12.9730769 108.398718,13.3544872 108.741667,13.6384615 C109.083333,13.9365385 109.525,14.1698718 110.072436,14.35 C110.619872,14.5397436 111.246154,14.700641 111.953205,14.849359 C112.658974,14.9916667 113.375,15.1538462 114.103846,15.3230769 C114.857692,15.4910256 115.594872,15.6974359 116.312179,15.9429487 C117.030769,16.1903846 117.667308,16.5089744 118.23141,16.9102564 C118.789744,17.3115385 119.239103,17.8089744 119.58141,18.4064103 C119.919872,19 120.094231,19.7378205 120.094231,20.6147436 C120.094231,21.8564103 119.840385,22.8942308 119.341026,23.7352564 C118.844231,24.5775641 118.192308,25.25 117.392308,25.7621795 C116.588462,26.274359 115.666667,26.6301282 114.634615,26.8365385 C113.6,27.0442308 112.549359,27.1474359 111.473718,27.1474359 C110.383974,27.1474359 109.309615,27.0371795 108.262821,26.8173077 C107.217949,26.6032051 106.286538,26.2346154 105.469231,25.7224359 C104.655128,25.2115385 103.989744,24.5384615 103.465385,23.7012821 C102.940385,22.8602564 102.657692,21.8038462 102.607051,20.5410256 L107.535256,20.5410256 C107.535256,21.1019231 107.651923,21.5871795 107.88141,21.9826923 L107.88141,21.9826923 Z"></path>
                        <path d="M121.783333,4.88525641 L121.783333,0.612179487 L126.969231,0.612179487 L126.969231,4.88525641 L121.783333,4.88525641 L121.783333,4.88525641 Z M126.969231,7.80705128 L126.969231,26.6782051 L121.783333,26.6782051 L121.783333,7.80705128 L126.969231,7.80705128 L126.969231,7.80705128 Z"></path>
                        <path d="M129.497436,2.14487179 L134.682692,2.14487179 L134.682692,7.80705128 L138.476923,7.80705128 L138.476923,11.2698718 L134.682692,11.2698718 L134.682692,20.6173077 C134.682692,21.4903846 134.825641,22.0794872 135.11859,22.3724359 C135.409615,22.6621795 135.992308,22.8064103 136.870513,22.8064103 C137.160256,22.8064103 137.444872,22.799359 137.710897,22.7717949 C137.977564,22.7448718 138.235256,22.7076923 138.476923,22.6621795 L138.476923,26.6782051 C138.041026,26.7487179 137.551923,26.7961538 137.016026,26.8205128 C136.478846,26.8467949 135.95641,26.8602564 135.448077,26.8602564 C134.642949,26.8602564 133.885256,26.8083333 133.162821,26.6916667 C132.445513,26.5871795 131.814744,26.374359 131.265385,26.0564103 C130.71859,25.7403846 130.287821,25.2871795 129.969872,24.7089744 C129.651923,24.1262821 129.498077,23.3551282 129.498077,22.4102564 L129.498077,2.14487179 L129.497436,2.14487179 Z"></path>
                        <path d="M147.986538,32.300641 C146.989103,32.9538462 145.602564,33.2839744 143.829487,33.2839744 C143.291026,33.2839744 142.763462,33.2647436 142.238462,33.2320513 C141.715385,33.1942308 141.188462,33.149359 140.649359,33.1025641 L140.649359,28.8346154 C141.139744,28.8801282 141.638462,28.9269231 142.146795,28.9788462 C142.663462,29.0230769 143.172436,29.0352564 143.679487,29.0102564 C144.366026,28.9384615 144.866026,28.6724359 145.197436,28.2064103 C145.528205,27.7467949 145.690385,27.2365385 145.690385,26.6788462 C145.690385,26.2647436 145.61859,25.875 145.46859,25.5121795 L138.862821,7.80769231 L144.376923,7.80769231 L148.644872,20.7275641 L148.717949,20.7275641 L152.844872,7.80769231 L158.205128,7.80769231 L150.325,29.0102564 C149.760897,30.5442308 148.983333,31.6391026 147.986538,32.300641 L147.986538,32.300641 Z"></path>
                    </g>
                </g>
                <g transform="translate(80.128205, 0.000000)" id="Shape" fill="#BBA461">
                    <path d="M12.075641,0.0833333333 L0.628205128,0.0833333333 C0.628205128,0.0833333333 12.7974359,1.50769231 20.7320513,17.3807692 L32.1762821,17.3807692 C24.2410256,1.50769231 12.075641,0.0833333333 12.075641,0.0833333333 L12.075641,0.0833333333 Z"></path>
                    <path d="M32.1762821,17.3807692 C35.100641,10.6134615 37.4211538,2.45448718 49.1762821,0.0833333333 L35.3108974,0.0833333333 C32.4333333,0.535897436 29.8891026,1.75384615 27.9141026,3.01730769 C27.5967949,3.22435897 27.2923077,3.43141026 27.0044872,3.63333333 C27.0038462,3.63269231 32.8282051,8.50833333 32.1762821,17.3807692 L32.1762821,17.3807692 Z"></path>
                </g>
                <path d="M48.6967949,26.7980769 L48.7,109.11859 C48.7,115.639744 50.699359,121.105769 54.3314103,124.512821 L54.3705128,124.544231 C58.8698718,128.372436 67.9121795,130.936538 76.8679487,130.936538 C82.7525641,130.936538 88.0057692,130.147436 92.4871795,128.578846 C96.5865385,127.142308 99.9608974,125.095513 102.548718,122.472436 C102.548718,122.472436 102.719231,122.277564 102.789103,122.342949 C102.865385,122.408333 102.732051,122.588462 102.732051,122.588462 C101.714103,124.014744 99.0230769,127.007051 92.6224359,130.612821 C83.9416667,135.496154 75.15,137.660256 63.1141026,137.660256 C42.2429487,137.660256 22.9717949,130.263462 14.0320513,118.827564 C10.5173077,114.280128 8.96538462,109.966667 8.96538462,101.076282 L8.97435897,12.5942308 C8.97435897,6.9474359 5.51089744,2.11730769 0.596794872,0.0833333333 L26.9615385,0.0833333333 C33.6916667,0.0833333333 48.6967949,6.16474359 48.6967949,26.7980769 L48.6967949,26.7980769 Z" id="Shape" fill="#BBA461"></path>
            </g>
        </g>
    </g>
</svg>