<?xml version="1.0" standalone="no"?>
<!DOCTYPE svg PUBLIC "-//W3C//DTD SVG 20010904//EN"
 "http://www.w3.org/TR/2001/REC-SVG-20010904/DTD/svg10.dtd">
<svg version="1.0" xmlns="http://www.w3.org/2000/svg"
 width="200.000000pt" height="200.000000pt" viewBox="0 0 200.000000 200.000000"
 preserveAspectRatio="xMidYMid meet">
<metadata>
Created by potrace 1.15, written by Peter Selinger 2001-2017
</metadata>
<g transform="translate(0.000000,200.000000) scale(0.100000,-0.100000)"
fill="#000000" stroke="none">
<path d="M343 1206 c-131 -30 -262 -115 -304 -198 -28 -56 -20 -56 21 0 67 89
171 150 300 174 58 11 149 4 181 -13 13 -6 19 -6 19 1 0 5 8 10 18 10 12 1 9
5 -11 16 -40 22 -150 26 -224 10z"/>
<path d="M209 972 c-8 -15 -39 -64 -67 -109 -49 -77 -51 -83 -30 -83 15 0 31
12 46 35 22 34 23 35 92 35 69 0 70 -1 92 -35 16 -23 31 -35 47 -35 22 0 22 1
9 23 -8 12 -39 61 -69 109 -45 73 -58 88 -79 88 -17 0 -30 -9 -41 -28z"/>
<path d="M430 890 l0 -110 120 0 c73 0 120 4 120 10 0 6 -40 10 -100 10 l-100
0 0 40 0 40 95 0 c57 0 95 4 95 10 0 6 -39 10 -96 10 l-95 0 3 38 3 37 98 3
c140 4 122 22 -23 22 l-120 0 0 -110z"/>
<path d="M710 891 c0 -103 1 -111 19 -111 16 0 20 8 23 43 l3 42 85 5 c101 6
130 19 130 59 0 52 -29 65 -151 69 l-109 4 0 -111z"/>
<path d="M1063 981 c-48 -22 -63 -45 -63 -96 0 -112 210 -157 302 -65 54 55
32 133 -48 166 -48 20 -141 17 -191 -5z m177 -16 c78 -40 60 -139 -30 -166
-49 -15 -102 -5 -140 27 -48 41 -39 108 18 138 35 20 115 20 152 1z"/>
<path d="M1370 890 c0 -103 1 -110 20 -110 17 0 20 8 22 85 l3 85 92 -85 c66
-61 99 -85 117 -85 l26 0 0 110 c0 103 -1 110 -20 110 -19 0 -20 -7 -20 -90 0
-49 -3 -90 -8 -90 -4 0 -48 41 -97 90 -60 61 -97 90 -112 90 -23 0 -23 -2 -23
-110z"/>
<path d="M1738 893 c-61 -100 -65 -108 -45 -111 12 -2 23 1 25 7 2 5 12 21 23
35 18 23 27 26 90 26 69 0 70 0 90 -35 15 -24 28 -35 45 -35 22 0 19 7 -44
110 -90 147 -94 147 -184 3z"/>
</g>
</svg>
