<svg width="248" height="72" xmlns="http://www.w3.org/2000/svg"><g fill="#000" fill-rule="evenodd"><path d="M134.325 46.055c0 7.665-9.539 7.21-9.539 7.21h-9.538V39.412h9.538c9.823-.056 9.539 6.643 9.539 6.643zm-19.077-27.763h7.268c7.55.398 7.266 6.018 7.266 6.018 0 6.983-8.346 7.097-8.346 7.097h-6.188V18.292zm17.317 15.84s6.529-2.782 6.472-10.163c0 0 .993-12.092-15.031-13.569H106.22v50.7h20.382s17.033.058 17.033-14.307c0 0 .397-9.765-11.071-12.66zM86.545.465h74.862V71.01H86.546V.465zM47.997 46.055c0 7.665-9.539 7.21-9.539 7.21H28.92V39.412h9.538c9.823-.056 9.539 6.643 9.539 6.643zM28.92 18.292h7.268c7.55.398 7.267 6.018 7.267 6.018 0 6.983-8.347 7.097-8.347 7.097H28.92V18.292zm17.317 15.84s6.529-2.782 6.472-10.163c0 0 .993-12.092-15.031-13.569H19.893v50.7h20.383s17.032.058 17.032-14.307c0 0 .398-9.765-11.071-12.66zM.217.465H75.08V71.01H.218V.465zM232.462 14.035v9.368s-9.142-5.621-19.247-5.735c0 0-18.85-.368-19.701 18.07 0 0-.682 16.96 19.474 17.926 0 0 8.46 1.022 19.928-6.302v9.709s-15.386 9.14-33.214 2.1c0 0-14.989-5.477-15.557-23.433 0 0-.625-18.467 19.36-24.599 0 0 5.338-2.044 14.933-1.136 0 0 5.734.568 14.024 4.032zM172.873 71.01h74.861V.465h-74.86V71.01z"/></g></svg>