<svg width="250" height="33" xmlns="http://www.w3.org/2000/svg"><g fill="#772953" fill-rule="evenodd"><path d="M14.695 32.636c-2.194 0-4.192-.36-5.995-1.082a12.62 12.62 0 0 1-4.643-3.178C2.764 26.98 1.765 25.274 1.06 23.26.353 21.247 0 18.933 0 16.318s.39-4.936 1.172-6.965c.781-2.028 1.848-3.733 3.2-5.116a13.744 13.744 0 0 1 4.689-3.156A14.827 14.827 0 0 1 14.695 0c1.353 0 2.562.09 3.629.27 1.066.18 1.99.391 2.772.631.781.241 1.413.482 1.893.722.481.24.812.42.993.54L22.674 5.77c-.27-.18-.661-.376-1.172-.586-.511-.21-1.104-.42-1.78-.631-.677-.21-1.42-.383-2.232-.519a15.66 15.66 0 0 0-2.569-.202c-1.533 0-2.93.286-4.192.856a9.017 9.017 0 0 0-3.246 2.48c-.901 1.082-1.6 2.396-2.096 3.944s-.744 3.283-.744 5.206c0 1.864.218 3.562.654 5.094.435 1.533 1.096 2.848 1.983 3.944a8.995 8.995 0 0 0 3.29 2.547c1.308.602 2.848.902 4.621.902 1.984 0 3.63-.21 4.936-.632 1.308-.42 2.291-.795 2.953-1.127l1.127 3.607c-.21.15-.586.338-1.127.563a15.31 15.31 0 0 1-2.029.653c-.81.21-1.758.39-2.84.542-1.081.15-2.253.225-3.516.225zM42.462.721a186.17 186.17 0 0 1 3.111 6.83c.992 2.298 1.99 4.71 2.997 7.234a411.098 411.098 0 0 1 3.089 8.002c1.05 2.81 2.178 5.868 3.38 9.173h-4.778c-.512-1.352-.992-2.69-1.443-4.012-.45-1.322-.917-2.66-1.397-4.011H33.267l-2.84 8.023h-4.553c1.202-3.305 2.329-6.363 3.38-9.173 1.052-2.81 2.081-5.477 3.089-8.001A282.25 282.25 0 0 1 35.34 7.55c.992-2.3 2.029-4.575 3.11-6.83h4.012zm-2.118 5.004a116.296 116.296 0 0 0-2.998 7.032 252.752 252.752 0 0 0-2.817 7.618h11.63a504.402 504.402 0 0 0-2.862-7.596 135.77 135.77 0 0 0-2.953-7.054zM80.868 31.96a247.363 247.363 0 0 0-2.276-3.742 154.384 154.384 0 0 0-2.773-4.305 275.175 275.175 0 0 0-3.088-4.53 201.105 201.105 0 0 0-3.178-4.44 165.483 165.483 0 0 0-3.065-4.035 83.579 83.579 0 0 0-2.75-3.336V31.96h-4.281V.721h3.47c1.413 1.503 2.923 3.253 4.53 5.252 1.608 1.998 3.2 4.057 4.779 6.175 1.577 2.118 3.065 4.2 4.462 6.243a117.578 117.578 0 0 1 3.539 5.455V.72h4.282V31.96h-3.65zM149.115 31.96a250.09 250.09 0 0 0-2.277-3.742 155.872 155.872 0 0 0-2.772-4.305 279.341 279.341 0 0 0-3.088-4.53 203.299 203.299 0 0 0-3.178-4.44 163.807 163.807 0 0 0-3.065-4.035 83.294 83.294 0 0 0-2.75-3.336V31.96h-4.282V.721h3.47c1.414 1.503 2.923 3.253 4.531 5.252a209.62 209.62 0 0 1 4.778 6.175 190.49 190.49 0 0 1 4.463 6.243 117.85 117.85 0 0 1 3.539 5.455V.72h4.282V31.96h-3.651zM160.699.721h4.373V31.96h-4.373V.72zM186.438 32.636c-2.194 0-4.192-.36-5.996-1.082a12.618 12.618 0 0 1-4.642-3.178c-1.293-1.397-2.293-3.102-2.998-5.116-.706-2.013-1.06-4.327-1.06-6.942s.391-4.936 1.172-6.965c.781-2.028 1.849-3.733 3.2-5.116a13.747 13.747 0 0 1 4.689-3.156A14.827 14.827 0 0 1 186.438 0c1.352 0 2.561.09 3.628.27 1.067.18 1.99.391 2.773.631.781.241 1.412.482 1.893.722.48.24.812.42.992.54l-1.307 3.607c-.27-.18-.662-.376-1.173-.586-.511-.21-1.104-.42-1.78-.631-.676-.21-1.42-.383-2.231-.519a15.663 15.663 0 0 0-2.57-.202c-1.532 0-2.93.286-4.192.856a9.02 9.02 0 0 0-3.245 2.48c-.902 1.082-1.6 2.396-2.096 3.944s-.744 3.283-.744 5.206c0 1.864.218 3.562.653 5.094.436 1.533 1.097 2.848 1.983 3.944a8.993 8.993 0 0 0 3.291 2.547c1.308.602 2.848.902 4.62.902 1.984 0 3.63-.21 4.937-.632 1.307-.42 2.291-.795 2.952-1.127l1.127 3.607c-.21.15-.586.338-1.127.563-.54.225-1.216.444-2.028.653-.811.21-1.758.39-2.84.542-1.082.15-2.254.225-3.516.225zM214.205.721a186.73 186.73 0 0 1 3.111 6.83c.992 2.298 1.99 4.71 2.997 7.234a408.938 408.938 0 0 1 3.089 8.002 1105.1 1105.1 0 0 1 3.38 9.173h-4.778c-.512-1.352-.992-2.69-1.443-4.012-.45-1.322-.917-2.66-1.397-4.011H205.01l-2.84 8.023h-4.553c1.201-3.305 2.328-6.363 3.38-9.173 1.052-2.81 2.081-5.477 3.088-8.001a282.226 282.226 0 0 1 2.998-7.235c.991-2.3 2.028-4.575 3.11-6.83h4.012zm-2.118 5.004a115.877 115.877 0 0 0-2.998 7.032 251.86 251.86 0 0 0-2.817 7.618h11.63a504.353 504.353 0 0 0-2.863-7.596 135.2 135.2 0 0 0-2.952-7.054zM249.996 28.309v3.65H231.2V.722h4.373V28.31h14.424zM106.112 26.709c-5.739 0-10.39-4.651-10.39-10.39 0-5.74 4.651-10.391 10.39-10.391 5.739 0 10.39 4.651 10.39 10.39 0 5.74-4.651 10.39-10.39 10.39z"/><path d="M122.43 16.318c0 9.012-7.306 16.318-16.318 16.318-9.013 0-16.318-7.306-16.318-16.318S97.1.001 106.112.001c9.012 0 16.318 7.305 16.318 16.317zM106.112 3.97c-6.82 0-12.349 5.529-12.349 12.348 0 6.821 5.528 12.348 12.349 12.348 6.82 0 12.348-5.527 12.348-12.348 0-6.82-5.528-12.348-12.348-12.348z"/></g></svg>