<?xml version="1.0" standalone="no"?>
<!DOCTYPE svg PUBLIC "-//W3C//DTD SVG 20010904//EN"
 "http://www.w3.org/TR/2001/REC-SVG-20010904/DTD/svg10.dtd">
<svg version="1.0" xmlns="http://www.w3.org/2000/svg"
 width="512.000000pt" height="512.000000pt" viewBox="0 0 512.000000 512.000000"
 preserveAspectRatio="xMidYMid meet">
<metadata>
Created by potrace 1.15, written by Peter Selinger 2001-2017
</metadata>
<g transform="translate(0.000000,512.000000) scale(0.100000,-0.100000)"
fill="#000000" stroke="none">
<path d="M710 5096 c-77 -17 -156 -44 -215 -74 -128 -64 -266 -182 -345 -296
-49 -72 -108 -203 -130 -290 -20 -78 -20 -109 -20 -1886 0 -1764 0 -1809 20
-1884 73 -286 284 -519 569 -628 l86 -33 1858 -3 c2061 -3 1901 -7 2055 64
112 51 202 116 289 207 125 133 206 298 233 475 7 45 10 661 8 1847 l-3 1780
-28 88 c-53 170 -127 288 -255 408 -88 82 -153 125 -269 174 -160 69 -41 65
-2015 64 -1364 -1 -1796 -4 -1838 -13z m3738 -44 c139 -43 264 -116 365 -211
139 -132 233 -306 266 -495 8 -40 11 -624 11 -1790 0 -1648 -1 -1735 -19
-1821 -67 -326 -320 -589 -651 -677 l-85 -23 -1780 0 -1780 0 -90 28 c-161 50
-273 117 -385 229 -127 127 -208 277 -244 450 -14 69 -16 267 -16 1818 0 1548
2 1749 16 1818 33 161 106 300 227 428 90 96 188 164 302 210 163 66 38 63
2005 61 l1785 -2 73 -23z"/>
<path d="M750 4990 c-47 -10 -98 -23 -113 -29 -208 -82 -351 -211 -448 -406
-89 -179 -88 -164 -99 -1110 -5 -451 -11 -1236 -12 -1745 l-3 -925 28 -88 c81
-259 235 -438 470 -547 176 -82 2 -75 1997 -75 l1775 0 88 28 c346 108 574
376 617 724 12 95 -3 2601 -20 3198 -7 292 -9 315 -34 398 -85 285 -291 489
-575 570 l-76 22 -1755 2 c-1669 2 -1759 1 -1840 -17z m2550 -1705 l0 -245
165 0 165 0 0 -150 0 -150 -165 0 -165 0 0 -442 c0 -261 4 -458 10 -479 14
-52 59 -90 112 -96 60 -7 147 12 213 48 30 16 59 29 64 29 8 0 -8 -70 -60
-263 -9 -34 -17 -42 -64 -62 -29 -13 -91 -31 -137 -39 -73 -12 -93 -13 -153 0
-88 19 -155 55 -203 113 -44 53 -53 67 -78 136 -17 46 -19 94 -24 550 l-5 500
-135 5 -135 5 0 145 0 145 135 5 135 5 5 160 5 160 150 81 c83 45 153 82 158
83 4 0 7 -109 7 -244z m-1771 -241 c102 -26 210 -87 296 -167 94 -87 95 -74
-18 -211 l-78 -95 -60 48 c-118 95 -210 131 -339 131 -143 0 -253 -45 -346
-142 -89 -92 -128 -184 -140 -327 -24 -298 189 -540 476 -541 139 0 237 36
348 129 l60 50 86 -105 c47 -59 86 -112 86 -119 0 -29 -155 -157 -248 -204
-112 -57 -338 -88 -441 -62 -20 6 -67 17 -106 26 -152 36 -313 134 -412 254
-150 182 -216 465 -165 711 22 107 68 225 114 295 102 153 272 271 468 324
118 32 304 34 419 5z m889 -796 l-3 -793 -160 0 -160 0 -3 793 -2 792 165 0
165 0 -2 -792z m1870 0 l-3 -793 -160 0 -160 0 -3 793 -2 792 165 0 165 0 -2
-792z"/>
</g>
</svg>
