<?xml version="1.0" standalone="no"?>
<!DOCTYPE svg PUBLIC "-//W3C//DTD SVG 20010904//EN"
 "http://www.w3.org/TR/2001/REC-SVG-20010904/DTD/svg10.dtd">
<svg version="1.0" xmlns="http://www.w3.org/2000/svg"
 width="1280.000000pt" height="295.000000pt" viewBox="0 0 1280.000000 295.000000"
 preserveAspectRatio="xMidYMid meet">
<metadata>
Created by potrace 1.15, written by Peter Selinger 2001-2017
</metadata>
<g transform="translate(0.000000,295.000000) scale(0.100000,-0.100000)"
fill="#000000" stroke="none">
<path d="M7438 2347 l-118 -62 0 -852 0 -853 125 0 125 0 0 915 c0 503 -3 915
-7 915 -5 -1 -61 -29 -125 -63z"/>
<path d="M7939 2400 c-46 -13 -78 -41 -99 -84 -25 -54 -25 -89 1 -142 57 -119
231 -119 288 0 27 55 26 93 -2 146 -37 70 -114 103 -188 80z"/>
<path d="M1360 2355 c-253 -50 -447 -236 -538 -515 -66 -200 -73 -477 -17
-696 62 -244 210 -437 403 -526 97 -44 183 -61 307 -61 202 1 352 61 486 193
42 41 83 89 92 106 l16 31 -99 67 c-55 36 -104 66 -108 66 -5 0 -23 -20 -40
-44 -70 -97 -185 -155 -322 -163 -243 -15 -409 118 -482 387 -20 74 -23 108
-22 265 0 155 3 191 22 257 59 207 148 316 303 369 72 24 205 30 274 11 65
-18 146 -73 194 -132 25 -30 50 -54 57 -54 17 2 214 126 214 135 0 16 -90 127
-136 167 -139 123 -390 180 -604 137z"/>
<path d="M10899 2229 c-41 -28 -95 -67 -122 -87 l-47 -36 71 -17 71 -17 77 55
c42 30 87 62 100 72 l25 17 -46 32 c-26 18 -48 32 -51 32 -2 0 -37 -23 -78
-51z"/>
<path d="M10512 1903 c-332 -329 -552 -712 -569 -994 -12 -194 70 -310 245
-346 69 -14 85 -14 180 1 109 18 220 55 319 105 58 29 58 29 28 35 -77 17 -80
19 -83 65 -2 32 1 47 15 57 17 14 17 15 -2 6 -11 -5 -58 -19 -104 -31 -179
-45 -302 -18 -359 77 -24 42 -27 57 -27 132 1 103 27 195 92 325 77 154 152
258 370 514 21 25 32 41 26 37 -10 -5 -13 8 -13 58 0 42 4 66 13 69 9 4 9 6 0
6 -7 1 -65 -52 -131 -116z"/>
<path d="M2690 1915 c-210 -47 -360 -195 -432 -425 -20 -66 -23 -95 -23 -245
0 -192 11 -246 73 -375 27 -54 58 -96 112 -151 93 -94 170 -134 299 -156 82
-14 100 -14 183 0 232 39 390 187 464 432 24 80 27 107 27 240 1 175 -13 248
-73 370 -94 195 -265 308 -479 320 -56 3 -109 0 -151 -10z m245 -254 c146 -65
230 -268 204 -495 -14 -125 -51 -209 -124 -283 -74 -74 -141 -100 -233 -89
-189 22 -302 190 -302 451 0 215 91 386 229 430 62 20 163 14 226 -14z"/>
<path d="M4102 1920 c-70 -15 -157 -59 -198 -101 -21 -21 -42 -39 -46 -39 -4
0 -8 27 -8 60 l0 60 -125 0 -125 0 0 -660 0 -660 125 0 125 0 0 393 c0 375 7
486 32 552 23 61 66 111 120 140 46 26 63 30 133 30 69 0 87 -4 132 -29 58
-32 96 -80 121 -153 14 -41 17 -114 20 -490 l3 -443 125 0 125 0 -3 468 c-4
406 -7 475 -22 527 -52 181 -133 277 -274 326 -65 23 -197 32 -260 19z"/>
<path d="M5255 1924 c-11 -2 -45 -9 -75 -15 -119 -24 -218 -97 -262 -194 -33
-72 -33 -227 1 -302 40 -91 127 -157 300 -230 224 -94 269 -115 306 -145 47
-39 68 -87 59 -134 -27 -146 -311 -167 -549 -40 l-82 43 -56 -93 -56 -93 29
-21 c17 -12 67 -39 114 -60 277 -131 623 -105 764 56 61 68 82 134 82 252 0
86 -3 104 -29 157 -49 105 -132 163 -361 257 -153 62 -208 89 -248 123 -70 59
-62 154 17 194 32 17 59 21 129 21 102 0 168 -17 265 -67 37 -20 69 -34 71
-32 6 6 106 180 106 184 0 8 -127 75 -170 91 -105 38 -291 63 -355 48z"/>
<path d="M6420 1920 c-119 -16 -310 -84 -310 -111 0 -5 20 -49 45 -98 l44 -89
48 22 c79 38 170 56 284 56 121 0 165 -16 216 -73 40 -45 53 -91 53 -184 l0
-73 -27 11 c-106 40 -320 51 -446 23 -153 -34 -260 -112 -313 -227 -27 -58
-29 -70 -29 -187 0 -119 1 -128 31 -190 17 -36 45 -82 63 -102 96 -110 283
-167 439 -134 80 17 190 70 239 116 18 17 34 30 37 30 4 0 6 -29 6 -65 l0 -65
126 0 125 0 -3 503 c-3 496 -4 503 -27 567 -12 36 -38 86 -57 112 -96 130
-303 190 -544 158z m188 -720 c46 -6 108 -20 138 -31 l54 -20 0 -102 0 -101
-51 -49 c-28 -27 -81 -63 -117 -80 -61 -29 -76 -32 -162 -32 -105 0 -149 16
-202 72 -37 38 -48 73 -48 147 0 54 4 69 30 104 35 48 74 71 150 88 71 16 107
16 208 4z"/>
<path d="M8693 1919 c-162 -27 -279 -115 -315 -239 -19 -64 -16 -184 7 -250
35 -105 143 -184 383 -279 206 -82 275 -129 288 -196 34 -185 -278 -237 -550
-92 l-82 44 -53 -89 c-29 -49 -50 -95 -48 -102 9 -23 209 -114 302 -137 100
-25 250 -30 345 -11 110 21 171 51 236 116 79 79 99 133 98 266 -1 120 -24
178 -98 248 -68 65 -115 91 -302 168 -171 70 -243 111 -268 149 -19 29 -21 84
-4 119 42 94 312 86 468 -12 l45 -29 54 95 c63 111 68 100 -68 164 -137 65
-299 90 -438 67z"/>
<path d="M7860 1240 l0 -660 125 0 125 0 0 660 0 660 -125 0 -125 0 0 -660z"/>
<path d="M11606 1681 c-12 -21 -24 -31 -40 -31 -13 0 -38 -3 -55 -6 l-31 -6
28 -34 c15 -19 50 -59 79 -89 l51 -55 22 30 c13 18 30 30 43 30 21 0 22 -4 19
-76 -3 -67 -5 -74 -20 -62 -9 7 -3 -7 12 -32 53 -86 120 -235 123 -275 2 -22
11 -77 19 -122 16 -82 16 -83 -7 -130 -29 -56 -58 -79 -125 -98 -28 -8 -39
-14 -26 -14 23 -1 23 -3 20 -76 l-3 -75 36 0 c99 0 194 58 239 146 23 45 25
60 25 185 l0 136 38 43 c99 109 147 222 132 313 -9 52 -18 69 -63 119 -44 49
-111 83 -210 109 -78 20 -113 24 -76 9 17 -7 23 -19 26 -55 2 -26 -1 -49 -5
-52 -5 -3 9 -13 30 -23 92 -41 142 -114 128 -188 -7 -40 -41 -112 -53 -112 -4
0 -25 35 -46 78 -21 42 -60 114 -87 158 -27 45 -49 85 -49 89 0 5 -12 24 -27
43 -21 29 -24 38 -15 53 17 27 15 29 -19 29 -23 0 -40 9 -64 36 l-33 36 -16
-31z"/>
<path d="M10948 1001 c-37 -25 -67 -49 -68 -52 0 -13 112 -90 124 -86 19 8
126 89 125 96 0 6 -106 92 -111 90 -2 -1 -33 -22 -70 -48z"/>
<path d="M11320 789 c-45 -19 -45 -20 -41 -65 5 -67 27 -74 133 -39 45 16 98
35 117 42 l34 15 -84 29 c-46 16 -91 31 -99 34 -8 2 -35 -5 -60 -16z"/>
</g>
</svg>
