<?xml version="1.0" standalone="no"?>
<!DOCTYPE svg PUBLIC "-//W3C//DTD SVG 20010904//EN"
 "http://www.w3.org/TR/2001/REC-SVG-20010904/DTD/svg10.dtd">
<svg version="1.0" xmlns="http://www.w3.org/2000/svg"
 width="310.000000pt" height="92.000000pt" viewBox="0 0 310.000000 92.000000"
 preserveAspectRatio="xMidYMid meet">
<metadata>
Created by potrace 1.15, written by Peter Selinger 2001-2017
</metadata>
<g transform="translate(0.000000,92.000000) scale(0.100000,-0.100000)"
fill="#000000" stroke="none">
<path d="M1105 598 c-92 -34 -129 -95 -130 -213 0 -69 4 -86 27 -125 36 -63
90 -91 172 -92 100 0 181 51 174 111 -4 38 -33 37 -79 -3 -49 -42 -88 -52
-126 -34 -31 15 -73 72 -73 99 0 18 10 19 125 19 114 0 127 2 146 21 40 40 5
152 -61 196 -44 28 -129 39 -175 21z m110 -74 c19 -8 45 -55 45 -84 0 -19 -6
-20 -95 -20 -59 0 -95 4 -95 10 0 23 29 79 47 89 20 12 73 14 98 5z"/>
<path d="M1525 595 c-71 -25 -117 -99 -83 -133 21 -21 44 -13 77 28 30 38 35
40 85 40 59 0 73 -10 78 -54 l3 -30 -107 -26 c-116 -29 -141 -44 -159 -97 -40
-122 102 -201 227 -128 l45 26 28 -30 c24 -26 33 -30 53 -22 19 7 23 15 21 47
-19 333 -17 322 -41 347 -42 44 -150 59 -227 32z m162 -255 c-7 -57 -30 -87
-77 -101 -36 -11 -44 -10 -68 8 -33 24 -40 63 -15 85 18 16 109 45 147 47 16
1 18 -4 13 -39z"/>
</g>
</svg>
