<svg xmlns="http://www.w3.org/2000/svg" viewBox="0 0 1190.6 680.3"><g fill="#1E1E1C"><path d="M547.5 234.1H600v21.6h-52.5v57.5h-22.9V179.6h79.2v21.6h-56.3v32.9zM651.4 315.5c-4.3 0-8.5-.8-12.5-2.3-4-1.5-7.5-3.8-10.6-6.7-3.1-2.9-5.5-6.5-7.3-10.7-1.9-4.2-2.8-9-2.8-14.5v-58.6h22.9V275c0 6.7 1.5 11.6 4.6 14.6 3.1 3 7.5 4.5 13.4 4.5 2.9 0 5.5-.6 7.7-1.7s4.1-2.4 5.6-3.8c1.8-1.5 3.3-3.4 4.6-5.5v-60.3h22.9v90.5h-21.4V300c-1.9 2.9-4.1 5.5-6.7 7.8-2.2 1.9-4.9 3.7-8.4 5.2-3.4 1.7-7.4 2.5-12 2.5zM715 222.7h17.7v-26.9h22.9v26.9H783v20.6h-27.3v36.5c0 2.8.3 5.1 1 7 .6 1.8 1.5 3.3 2.7 4.4 1.1 1.1 2.4 1.8 3.8 2.3 1.4.4 2.9.7 4.4.7 1.3 0 2.5-.2 3.6-.5s2.2-.7 3.1-1.1c1-.5 2-1.1 2.9-1.7l8.4 18.7c-1.6 1.1-3.6 2.2-5.9 3.1-1.9.8-4.2 1.4-6.8 2-2.7.6-5.7.9-9 .9-4.5 0-8.6-.8-12.3-2.3-3.7-1.5-7-3.7-9.7-6.5-2.7-2.8-4.9-6.2-6.5-10.1-1.6-3.9-2.4-8.4-2.4-13.2v-40.1h-18v-20.7zM832.5 315.5c-4.3 0-8.5-.8-12.5-2.3-4-1.5-7.5-3.8-10.6-6.7-3-2.9-5.5-6.5-7.3-10.7-1.8-4.2-2.8-9-2.8-14.5v-58.6h22.9V275c0 6.7 1.5 11.6 4.6 14.6 3.1 3 7.5 4.5 13.4 4.5 2.9 0 5.5-.6 7.7-1.7s4.1-2.4 5.6-3.8c1.8-1.5 3.3-3.4 4.6-5.5v-60.3H881v90.5h-21.4V300c-1.9 2.9-4.1 5.5-6.7 7.8-2.1 1.9-4.9 3.7-8.4 5.2-3.4 1.7-7.4 2.5-12 2.5zM948.3 220.4c2 0 4 .2 5.9.5 1.9.3 3.6.7 5 1.1 1.7.5 3.2 1 4.8 1.3l-8 20.6c-.8-.3-1.7-.6-2.9-1-1-.2-2.2-.5-3.5-.8-1.3-.3-2.8-.4-4.5-.4-3.6 0-6.6.7-9.1 1.9-2.5 1.3-4.6 2.7-6.2 4.2-1.9 1.8-3.6 3.8-5 6.1v59.2h-22.9v-90.5h21.8v13.2c1.7-2.8 3.6-5.4 5.9-7.6 2-1.9 4.6-3.7 7.7-5.3 3.1-1.7 6.8-2.5 11-2.5zM1009.7 220.4c6.2 0 12.1 1.2 17.7 3.4 5.5 2.3 10.3 5.5 14.5 9.6 4.1 4.1 7.4 9.1 9.8 14.9 2.4 5.8 3.6 12.2 3.6 19.2v3.6c0 1.5-.1 3.2-.2 4.9h-67.6c.4 2 1.3 4.2 2.7 6.3 1.4 2.2 3.2 4.1 5.3 5.9 2.1 1.8 4.7 3.3 7.6 4.4 2.9 1.2 6.2 1.7 9.7 1.7 3.9 0 7.4-.5 10.5-1.4 3.1-.9 5.7-2 7.8-3.1 2.4-1.4 4.6-2.9 6.5-4.6l11.5 17.2c-2.9 2.4-6.2 4.6-9.9 6.5-3.2 1.7-7 3.1-11.5 4.5-4.4 1.3-9.4 2-14.9 2-6.9 0-13.3-1.2-19.2-3.7-5.9-2.5-11.1-5.9-15.5-10.1-4.4-4.3-7.8-9.3-10.3-15.1-2.5-5.8-3.7-12-3.7-18.6 0-6.6 1.1-12.8 3.4-18.6 2.3-5.8 5.4-10.8 9.4-15.1 4-4.3 8.8-7.6 14.4-10.1 5.9-2.5 11.9-3.7 18.4-3.7zm22.7 39.1c-.1-1.9-.7-3.9-1.6-6.1-1-2.2-2.4-4.2-4.2-6-1.8-1.8-4.2-3.3-7-4.5-2.8-1.1-6.1-1.7-9.9-1.7-3.7 0-6.9.6-9.5 1.7-2.7 1.1-4.9 2.6-6.8 4.4-1.8 1.8-3.2 3.8-4.2 5.9-.9 2.1-1.5 4.3-1.6 6.3h44.8zM524.6 360.1h22.9v119.1h56.9v21.6h-79.8V360.1zM656.6 408c6.2 0 12.1 1.1 17.6 3.4 5.5 2.3 10.4 5.5 14.5 9.6s7.4 9.1 9.8 14.9c2.4 5.8 3.6 12.2 3.6 19.2v3.6c0 1.5-.1 3.2-.2 4.9h-67.5c.4 2 1.3 4.1 2.7 6.3 1.4 2.2 3.2 4.1 5.3 5.9 2.1 1.8 4.7 3.2 7.6 4.4 2.9 1.2 6.2 1.7 9.7 1.7 3.9 0 7.4-.5 10.5-1.4 3.1-1 5.7-2 7.8-3.1 2.4-1.4 4.6-2.9 6.5-4.6L696 490c-2.9 2.4-6.2 4.6-9.9 6.5-3.2 1.6-7 3.1-11.4 4.5-4.5 1.3-9.4 2-14.9 2-6.9 0-13.2-1.2-19.2-3.7-5.9-2.5-11.1-5.9-15.4-10.1-4.4-4.3-7.8-9.3-10.3-15.1-2.5-5.8-3.7-12-3.7-18.6 0-6.6 1.1-12.8 3.4-18.6 2.3-5.8 5.4-10.8 9.4-15.1 4-4.3 8.8-7.6 14.4-10.1 5.7-2.5 11.7-3.7 18.2-3.7zm22.7 39.1c-.2-1.9-.7-3.9-1.6-6.1-1-2.2-2.4-4.2-4.2-6-1.9-1.8-4.2-3.3-7-4.5-2.8-1.2-6.1-1.7-9.9-1.7-3.7 0-6.9.6-9.5 1.7-2.7 1.1-4.9 2.6-6.8 4.4s-3.3 3.7-4.2 5.9c-1 2.2-1.5 4.3-1.6 6.3h44.8zM807 410.3v90.4h-21.2v-11.8c-1.7 2.7-3.8 5-6.3 7.1-2.2 1.8-5 3.4-8.5 4.9-3.5 1.5-7.6 2.2-12.5 2.2-5.9 0-11.5-1.2-16.8-3.5-5.3-2.3-10-5.6-14-9.8-4-4.2-7.2-9.2-9.6-15-2.4-5.8-3.6-12.2-3.6-19.2s1.2-13.4 3.6-19.2c2.4-5.8 5.6-10.8 9.6-15 4-4.2 8.7-7.5 14-9.8 5.4-2.3 10.9-3.5 16.8-3.5 4.7 0 8.8.7 12.3 2.2 3.5 1.5 6.3 3.1 8.5 4.9 2.5 2.2 4.7 4.5 6.5 7.1v-11.9H807zM784.1 442c-1.4-2.3-3.1-4.4-5.2-6.3-1.8-1.5-4-3-6.7-4.3-2.7-1.3-5.9-2-9.5-2-3.8 0-7.3.7-10.4 2-3.1 1.3-5.8 3.2-7.9 5.5-2.2 2.4-3.8 5.1-5 8.3-1.2 3.2-1.7 6.6-1.7 10.3 0 3.7.6 7.1 1.7 10.3 1.2 3.2 2.8 5.9 5 8.3 2.1 2.3 4.8 4.2 7.9 5.5 3.1 1.3 6.6 2 10.4 2 3.7 0 6.9-.6 9.5-1.9 2.7-1.3 4.9-2.7 6.7-4.4 2.1-1.8 3.8-3.9 5.2-6.3v-27zM873.4 408c2 0 4 .2 5.9.5 1.9.3 3.6.7 5 1 1.6.5 3.2 1 4.8 1.3l-8 20.6c-.8-.2-1.7-.6-2.9-1-1-.3-2.2-.5-3.5-.8-1.4-.3-2.8-.4-4.5-.4-3.6 0-6.6.6-9.1 1.9-2.5 1.3-4.6 2.7-6.2 4.2-1.9 1.8-3.6 3.8-4.9 6.1v59.1h-23v-90.4h21.7v13.2c1.6-2.8 3.6-5.3 5.9-7.6 2-1.9 4.6-3.7 7.7-5.4 3.2-1.5 6.9-2.3 11.1-2.3zM949.2 408c4.3 0 8.5.8 12.5 2.3 4 1.5 7.5 3.8 10.6 6.7 3.1 2.9 5.5 6.5 7.3 10.7 1.8 4.2 2.8 9 2.8 14.5v58.6h-22.9V448c0-6.5-1.7-11.2-5.2-14.1-3.5-2.9-7.7-4.4-12.7-4.4-2.9 0-5.5.6-7.7 1.9-2.2 1.3-4.1 2.6-5.6 4-1.8 1.6-3.3 3.6-4.6 5.7v59.7h-22.9v-90.4h21.4v13.2c1.7-2.8 3.8-5.3 6.3-7.6 2.2-1.9 5-3.7 8.4-5.4 3.3-1.8 7.4-2.6 12.3-2.6z"/></g><path fill="#C03A8E" d="M446.7 179.6v106.7H344.9v93.8H242v93.7H135.2v27l133.7.1v-93.8h102.9v-93.9h101.9V179.6z"/></svg>