<svg width="250" height="87" xmlns="http://www.w3.org/2000/svg"><g fill="#333" fill-rule="evenodd"><path d="M128.836 30.126c-10.641.187-19.79 9.218-20.435 20.168-.645 10.95 7.983 20.74 19.27 21.866 11.29 1.122 20.438-7.91 20.438-20.17-.002-12.265-8.628-22.053-19.273-21.864zm1.324 31.695c-5.853.689-10.837-4.663-10.5-11.477.332-6.817 3.058-11.077 8.577-11.193 5.519-.117 8.858 6.221 8.229 13.63-.483 5.673-3.997 8.767-6.306 9.04zM150.174 53.109c0 12.263 9.147 21.294 20.437 20.17 11.288-1.124 19.916-10.914 19.273-21.865-.644-10.95-9.796-19.983-20.44-20.17-10.642-.187-19.27 9.603-19.27 21.865zm11.643.792c-.63-7.41 2.71-13.746 8.229-13.63 5.52.114 8.244 4.374 8.578 11.19.336 6.814-4.65 12.165-10.502 11.476-2.309-.27-5.82-3.364-6.305-9.036zM0 77.59V14.634l13.189-3.384-.033 26.82L35.43 16.59l11.455 4.402L30.697 38.95l10.736 39.111H29.786l-8.591-29.966-8.115 7.947.109 22.02L0 77.59zM90.824 50.13c-.003-.11.008.135 0 0 .008.13-.003-.115 0 0z"/><path d="M90.824 50.13c-.003-.09.008.091 0 0 .008.09-.003-.094 0 0z"/><path d="M90.824 50.13c-.01-.235.016.292 0 0 .016.269-.011-.254 0 0z"/><path d="M90.824 50.13c-.001-.042.002.04 0 0 .002.042-.001-.042 0 0z"/><path d="M90.824 50.13c.008.131.008.118 0 0z"/><path d="M90.824 50.13c-.003-.134.012.204 0 0 .014.221-.003-.128 0 0z"/><path d="M90.824 50.13c-.001-.046.006.082 0 0 .006.078-.001-.048 0 0z"/><path d="M90.824 50.13c-.007-.18.012.2 0 0 .014.21-.005-.17 0 0z"/><path d="M90.824 50.13c-.007-.216.012.202 0 0 .014.221-.007-.199 0 0z"/><path d="M90.824 50.13c-.001-.03 0 0 0 0 .002.015-.001-.015 0 0z"/><path d="M90.824 50.13c-.001-.06.002.038 0 0 .004.05-.001-.05 0 0z"/><path d="M90.824 50.13c-.001-.02.002.017 0 0 .002.013-.001-.023 0 0z"/><path d="M90.824 50.13c-.003-.098.008.097 0 0 .006.082-.003-.117 0 0z"/><path d="M90.824 50.13c-.017-.37.023.437 0 0 .02.328-.02-.46 0 0z"/><path d="M90.824 50.13c-.001-.044.002.038 0 0 .002.042-.001-.042 0 0z"/><path d="M96.313 73.195h11.58l-4.355-30.825c-1.647-18.004-8.214-18.046-20.47-14.13L82.816 0 71.544 3.011l1.796 69.8 11.07.382-.64-36.065c2.425-1.073 10.442-3.33 10.71 5.559l1.073 12.678.76 17.83zM235.931 73.557l-3.269 7.699 6.92 4.83 6.823-4.08-2.874-8.449h-7.6zM187.803 25.628l1.897 13.1h7.928l.55 31.157s-1.24 11.21 15.652 8.644c0 0 5.286-1.584 5.118-5.323v-12.31s-3.559 2.129-7.427 2.129c-3.868 0-3.893-1.888-3.893-1.888l-1.034-24.131 12.354-.69v-7.929l-12.648-.834.154-16.33-8.798-3.647-.011 18.395-9.842-.343zM226.687 6.887L250 11.377l-9 57.806-14.313-62.296zM44.084 28.656l3.088 8.151c7.66-4.652 11.988.02 11.988.02l-.059 5.202c-22.826 4.045-17.051 25.4-17.051 25.4 2.309 8.38 9.824 8.09 9.824 8.09l17.115.002.324-38.857c-2.681-18.088-25.229-8.008-25.229-8.008zm14.992 39.43s-8.278 2.027-9.192-6.13c0 0 .177-12.624 9.503-11.267l-.31 17.397z"/></g></svg>