<svg width="249" height="47" xmlns="http://www.w3.org/2000/svg"><g fill="#1A1918" fill-rule="evenodd"><path d="M246.27 5.077c0 .138.139.277.139.415.276 1.38-.553 2.9-1.105 4.143l-1.243 2.487c-.415.828-.829 1.38-1.381 2.071-.553.691-1.105 1.658-1.382 2.487-.414.966-.69 1.795-.967 2.762-.414 1.105-1.104 2.21-1.657 3.315-.552 1.243-.829 2.486-1.52 3.73-.276.414-.552.828-.966.966-.415.138-.967.138-1.381-.138-.691-.553-.415-1.381-.277-2.072.277-.829.691-1.657.967-2.348.415-1.105.967-2.21 1.52-3.177.552-1.105 1.38-1.933 1.519-3.315.138-1.243-.414-2.072-.69-3.176-.277-1.244-.415-2.625-.83-3.868-.276-.967-1.795-3.867-.138-4.282 1.382-.414 1.934 2.072 2.21 3.039.415 1.381.691 2.9.967 4.282 0 .276.415.276.553.138a19.162 19.162 0 0 0 2.9-5.525c.277-.69.277-1.52.829-1.934.276-.69 1.52-.69 1.934 0M228.177 8.254c.276 1.381-.415 3.315-.829 4.696-.552 1.796-1.381 3.591-2.486 5.11a13.946 13.946 0 0 1-1.796 2.21c-.552.691-1.38 1.52-2.21 1.796-1.38.415-1.933-.69-2.348-1.657-.414-1.243-.69-2.486-1.105-3.73-.138-.69-.414-1.38-.69-1.933-.138-.415-.415-1.52-.967-.967-.138.138-.276.414-.276.552-.139.553-.277.967-.415 1.52-.414 1.657-.69 2.9-1.105 4.282-.276 1.105-.552 2.21-.828 3.176-.139.691-.415 2.348-.967 2.625-.553.276-1.243-.277-1.52-.69-.414-.83-.138-1.935 0-2.763.415-1.934.967-3.868 1.52-5.94.552-1.795 1.38-3.59 1.657-5.524.138-.691.276-1.52.967-1.796.69-.414 2.072 0 2.486.552.69.83 2.072 5.94 2.625 7.459.138.414.276 2.348 1.104 1.658.277-.277 1.105-1.796 1.382-2.21.69-1.105 1.243-1.934 1.795-3.177.553-1.243.69-2.625.967-3.868.276-.966.69-2.9 2.072-2.348.69.138.829.553.967.967M174.31 11.293l.414.414c.414.553.552 1.243.828 1.934.139.276.691 3.73.83 4.696 0 .138.137.276.275.138.415-.138.553-.552.967-.967.829-.828 1.658-1.795 2.486-2.624.691-.829 1.382-2.21 2.349-2.762.828-.415 1.933-.139 2.21.552.276.553.276 1.243.276 1.934 0 1.105-.138 2.348-.276 3.453-.139.829-.139 1.657-.277 2.348 0 .69 0 1.52-.138 2.21-.138.552-.276 1.243-.552 1.657-.415.553-.967.138-1.382-.276-.966-.967-.552-2.762-.276-3.867.138-.691.276-1.52.415-2.21 0-.277 0-.553.138-.83 0-.275.138-.966-.138-1.242-.415-.276-1.382.967-1.52 1.105-.552.552-1.105 1.105-1.52 1.795-.413.553-.966 1.243-1.38 1.796-.415.414-.967 1.243-1.52 1.381-1.38.276-2.21-1.52-2.348-2.486-.138-.829-.276-1.657-.276-2.348 0-.553 0-1.105-.138-1.658 0-.276 0-.552-.276-.552-.138-.138-.415 0-.553.138-.69.414-.829 1.243-1.243 1.934-.414.829-.829 1.657-1.105 2.486-.552 1.243-1.105 2.624-1.657 3.867-.277.691-.553 1.243-.967 1.934l-.829 1.658a1.415 1.415 0 0 1-.829.69c-.69.276-1.38-.276-1.38-.967-.139-.552.275-.967.413-1.519.553-1.381 1.52-2.762 2.21-4.144.83-1.795 1.52-3.59 2.349-5.386.552-1.244 1.243-2.487 2.071-3.592.277-.414.69-.966 1.243-1.105.139-.138.691.139 1.105.415M144.475 11.017c-.967 2.9-2.486 5.386-3.73 8.01-.69 1.52-1.242 3.177-1.795 4.697-.414 1.52-.414 3.453-1.105 4.834-.138.414-.414 1.243-.967 1.243-.552 0-1.933.414-1.519-1.52.138-.414.276-1.104.276-1.519.277-.966.415-1.933.691-2.9.276-1.105.552-2.21.552-3.315s-.552-2.21-1.105-3.177c-.552-.967-1.38-1.934-1.933-2.9-.276-.553-.553-.967-.69-1.52v-.276c.137-.276.552-.138.828-.138.276 0 .69 0 .967.276.552.276.828 1.105 1.105 1.52.414.69.828 1.38 1.243 2.21.138.138.69 1.243.967 1.795 0 .138.276.138.276 0 .414-.69 1.105-2.486 1.381-3.039.414-.828.829-1.657 1.243-2.348.138-.414.69-1.795.967-2.072.276-.414.829-.828 1.105-.828 1.381 0 1.381.552 1.243.967M91.022 13.088c.276.415.414 1.52-.138 1.796h-.276c-2.348 0-4.835.276-7.183.414-.138 0-.276.138-.414.277-.69 2.071-.967 4.143-1.52 6.215-.137.276.139.553.415.553h.414c.415 0 .83-.139 1.244-.139.69 0 1.519 0 2.071.415.415.276.415.69.277 1.105-.139.552-.553.69-1.105.828-.553.139-1.243.139-1.796.277h-1.243c-.276 0-.69-.138-.967.138-.138.138-.138.414-.276.552-.138.83-.276 1.52-.415 2.487 0 .414-.138 1.104.277 1.243 1.52 0 3.177.138 4.696 0 .552 0 1.381-.277 1.795 0 .277.138.277.414.277.69v.415c-.138.276-.277.276-.553.414-.276.138-.552.138-.829.276-.552.138-1.104.276-1.657.276-1.105.139-2.21.139-3.453.139h-1.52c-.276 0-.414 0-.69-.139-.276-.138-.414-.414-.414-.552-.277-.829 0-1.796.138-2.624.276-.967.829-2.21.69-3.315 0-.277-.276-.415-.276-.69a.88.88 0 0 1 0-.83c.138-.276.415-.552.69-.69.139-.138.277-.138.415-.276.138-.139.414-1.658.414-2.072.277-1.243.415-2.486.553-3.868 0-.69.138-1.38.138-2.072 0-.552.138-1.104.553-1.519.276-.276.966-.276 1.38-.276 1.244 0 2.349 0 3.592-.138.829 0 1.52-.138 2.348-.138.967.138 1.934.138 2.348.828M201.796 17.508c0 .69 0 1.243-.691 1.52-.138 0-.276.138-.414.138-.691.138-1.382.138-1.934.276-.414 0-2.072.276-1.658-.552.139-.277.415-.415.553-.691.138-.276.414-.69.552-.967.415-.69.83-1.243 1.105-1.934.277-.414.553-.967.83-1.38.137-.277.413-.83.69-.83 1.105-.138.967 3.453.967 4.42zm2.624 1.934c0-1.52-.138-3.039-.414-4.42-.277-1.657-.691-3.177-.83-4.696 0-.414-.137-.829-.552-1.105-.414-.276-1.105-.138-1.519 0-.69.276-1.243 1.243-1.52 1.934-.69 1.105-1.104 2.072-1.795 3.176-.829 1.105-1.52 2.349-2.348 3.454-.967 1.38-1.657 3.038-2.624 4.42-.553.828-1.243 1.38-1.658 2.21-.276.414-.414 1.104-.138 1.519.276.276.69.414.967.414h.69c.277-.138.553-.414.83-.69.414-.691.828-1.52 1.242-2.21.277-.415.415-.691.83-.967.413-.277 1.242 0 1.657 0 1.105 0 2.21-.277 3.314-.69.277-.14.83-.553 1.105-.277.139.138.139.138.139.276.138.69.138 1.52 0 2.21 0 .414-.415.967-.139 1.381.139.276.415.276.553.415.414 0 .967 0 1.381-.139.69-.414.553-1.657.553-2.348.138-1.519.276-2.624.276-3.867zM18.094 26.624c0 .138.138.138.138 0 1.243-1.519 2.072-3.176 3.177-4.696 1.243-1.795 2.762-2.9 4.42-4.42.414-.276 1.105-.967 1.657-.828.276 0 .415.276.553.414.414.829.552 2.072.552 3.177.138 1.105.138 2.072.138 3.177 0 2.21-.138 4.42-.138 6.491 0 1.105 0 2.21.138 3.177 0 .69-.138 1.657-.967 1.934-.138.138-.414.138-.552.138-.414-4.834-.138-16.298-.553-16.16-.828-.138-4.143 3.59-5.8 6.077-.553.967-.967 1.934-1.52 2.762-.276.415-.552.83-.829 1.105-.276.277-1.105.83-1.38.415-.415-.553-.553-1.658-.553-2.348-.277-1.796-.277-3.591-.553-5.387-.138-.967-.276-2.072-.69-3.039-.139-.276-.139-.414-.415-.138-.138.138-.276.415-.414.69-.829 1.106-.829 2.487-1.105 3.73-.276 1.105-.553 2.072-.967 3.039-.829 2.21-2.072 4.143-3.039 6.215-.138.138-.138.276-.276.415-.138.138-.276.138-.414.138-.553-.277.276-2.072.414-2.487.414-.828.829-1.657 1.243-2.624.829-1.934 1.381-4.005 2.072-6.077.69-2.072 1.381-4.006 2.762-5.663l.415-.415c.967-.276 1.52 1.934 1.795 2.487.415 1.519.553 3.176.69 4.834 0 .69.139 1.381.139 2.072-.276.414-.276 1.38-.138 1.795M49.724 23.724c-49.586-53.73-.138 0 0 0-.138.138-.276.138-.415.138H47.1c-.69 0-2.071.138-2.071-.138-.138-.276.414-.829.552-1.105.414-.415.69-.829.967-1.381.552-.83 1.243-1.796 1.796-2.763.138-.138.828-1.52.966-.69.139.552.139 1.38.139 1.933 0 1.243.138 2.625.138 3.868.138 0 .138 0 .138.138zm2.21 5.525c-.277-2.21-.415-4.42-.553-6.63-.138-1.243-.138-2.625-.138-3.868 0-1.38.138-2.762-.414-4.143-.415-1.105-1.105 0-1.52.414-.414.553-.966 1.105-1.38 1.658a32.131 32.131 0 0 0-2.349 3.59 50.9 50.9 0 0 1-2.348 3.454c-.829-.138-1.243.276-1.381.967-.138.414-.138.828-.276 1.243-.277.828-.691 1.519-1.244 2.348-.552.828-1.104 1.795-1.657 2.762-.552 1.105-1.105 2.072-.69 3.177.966 0 1.243-.967 1.657-1.657a85.74 85.74 0 0 1 1.795-3.454c.277-.552.691-1.104.967-1.519.277-.276.553-1.105.967-1.243.138 0 .276 0 .415-.138 2.071-.138 4.143-.276 6.215-.276.138 0 .276.138.276.138.415 1.52-.414 6.492.967 6.768 1.381.414.829-2.763.69-3.591z"/><path d="M248.204 31.32c-.966.967-2.762.691-4.143.83-3.591.552-7.044.966-10.636 1.519-6.491.966-12.845 1.933-19.337 2.762-6.077.829-12.154 2.348-18.232 2.9-5.11.553-10.22.691-15.331.415-5.11-.276-10.083.276-15.332.829-9.392.828-18.922 1.105-28.453.966-8.287-.138-16.436.553-24.723.277-7.597-.277-15.332.276-22.929.276h-8.563c-7.873.138-15.608.829-23.48.829-8.012 0-16.023-.138-23.896.69-2.21.277-5.248.138-6.906.415-1.243.138-2.486.552-3.73.69-3.728.415-7.182-.138-10.91.967-1.106.276-2.21.69-3.316.69-1.105 0-2.21.415-3.315.415s-1.933-.414-3.038-.552c-.553 0-1.243-.277-1.658-.691C0 45.271 0 44.718 0 44.442c0-2.21.138-4.42.138-6.63.69-.829.967-1.381 2.072-1.381.829 0 1.796.414 2.624.138.829-.138 1.658-.552 2.348-.69.415-.139.967.138 1.382 0 4.972-.83 10.22-.967 15.193-1.382 5.801 0 11.602-1.243 17.403-1.52 5.801-.275 11.602 0 17.265.139 4.144 0 8.288-.552 12.431-.69 5.249-.277 10.498 0 15.746-.139 5.387-.138 10.774-.552 16.16-.552 6.354-.138 12.708.414 19.2 0 7.32-.553 14.64-.415 21.96-.276 6.492.138 12.984.414 19.338-.967 6.353-1.243 12.569-.69 19.06-.69 4.973 0 9.945 0 14.918-.553 1.795-.139 3.453-.83 5.248-1.105 1.658-.277 3.315-.415 4.973-.691 4.143-.829 8.149-1.381 12.292-1.796 2.072-.276 4.144-.69 6.216-.828.829 0 1.657 0 2.486-.277.829-.138 1.657-.69 2.486-.69 2.763-.138 5.525-1.243 9.116-1.105 1.243 0 4.144-.276 5.249-.69 2.9-.968 3.315 3.176 3.315 5.11 0 1.105.138 2.762-.415 3.73.139.137.139.275 0 .413"/><path d="M69.06 20.409c-.275 3.177-2.347 7.044-5.386 8.563-.552.277-1.105-.138-1.105-.69 0-1.52.138-3.039.414-4.558.415-1.796.967-3.591 1.244-5.387.276-1.105.552-2.624 1.38-3.453.277-.276.691-.553 1.244-.414 1.243.276 1.381 1.243 1.795 2.21.415 1.243.553 2.486.415 3.729zm.553-5.94c-.552-.828-1.52-1.795-2.9-1.795-1.382 0-2.625.138-3.315 2.21-.276.69-.276 1.657-.553 2.486-.276 1.105-.414 2.21-.552 3.315-.553 2.21-.967 4.558-1.381 6.768-.139.553-.139 1.243-.277 1.796 0 .414-.276 1.243-.276 1.519.276.829 1.52 1.381 2.348 1.243.967-.138 2.072-1.243 2.9-1.796 2.21-1.933 4.559-4.42 5.25-7.32.414-2.9.276-6.077-1.244-8.425zM122.652 26.072c-.138.69-.69 1.105-1.658 1.105-.828.138-1.519.138-2.348-.138-.138 0-.276-.138-.414-.138-.138-.139-.138-.277-.138-.553v-.967c0-.552.138-.967.276-1.52 0-.275 0-.552.138-.828 0-.414.138-1.105.138-1.105h.553c.414 0 .552.138.829.138.552.138 1.105.553 1.519.829.552.553.829 1.52.967 2.348.138.276.138.553.138.829zm-3.177-8.011c-.138-.138-.276-.415-.276-.553.138-.828.276-1.519.414-2.21.138-.552.415-.967.69-1.38v-.139c.277-.414.415-.552.83-.552h.828c.83 0 1.243.138 1.52.414.138.138.276.414.276.552v.415c0 .828-.276 1.52-.829 2.21-.552.69-1.381 1.105-2.486 1.38-.414.139-.829.139-.967-.137zm6.216-2.348c.138-.829 0-1.658-.277-2.486-.138-.415-.414-.967-.828-1.244-.138 0-.138-.138-.277-.138-.828-.414-2.071-.414-2.486-.414-2.762 0-3.315 1.796-4.143 4.834-.139.69-.415 1.243-.553 1.796-.138.138-.138.414-.276.552-.276.829-.276 1.796-.138 2.763v.138c0 .552.138 1.243 0 1.795 0 .277-.138.553-.138.83 0 .275-.139.552-.139.828 0 .276 0 .552-.138.829-.138 1.105-.276 2.21.138 3.453.139.276.415.414.691.552.553.138 1.243.138 1.796.138 2.624 0 4.696-.967 5.663-2.762 1.105-1.934.276-4.42-1.934-6.354l-.276-.276.414-.276c1.243-.69 2.624-2.625 2.9-4.558z"/></g></svg>