<svg width="250" height="29" xmlns="http://www.w3.org/2000/svg" xmlns:xlink="http://www.w3.org/1999/xlink"><defs><path id="a" d="M.053.2h249.496v28.686H.053"/></defs><g fill="none" fill-rule="evenodd"><mask id="b" fill="#fff"><use xlink:href="#a"/></mask><path d="M0 10.791h10.184V.201C7.672.37 3.667.879 0 2.305v8.486m0 5.534c0 7.605 6.45 11.168 10.184 12.561V15.714H0v.611" fill="#0DA448" mask="url(#b)"/><path d="M15.345 10.791h10.183V2.305C21.862.879 17.89.37 15.345.2v10.59zm0 18.095c3.732-1.393 10.183-4.956 10.183-12.56v-.612H15.345v13.172zm35.27-10.592L35.409 3.528v24.44h4.379V14.05l15.209 14.632V4.205h-4.38v14.089zM96.989 6.378l2.817 2.817 2.818-2.817-2.818-2.817-2.817 2.817zM93.83 7.703c.476 0 1.494.101 2.275.271l-.475-4.04a13.251 13.251 0 0 0-2.58-.238c-3.904 0-6.042 2.106-6.144 6.723h-5.839v-.578c0-1.63.814-2.138 2.615-2.138.475 0 1.492.101 2.273.271l-.476-4.04a13.251 13.251 0 0 0-2.579-.238c-3.904 0-6.043 2.106-6.145 6.723h-1.562l-.78 3.97h2.342v13.58h4.312V14.39h5.839V27.97h4.31V14.39h4.618v-3.97h-4.618v-.58c0-1.628.815-2.137 2.614-2.137zm-25.018 14.7c-.578.848-2.07 1.968-3.905 1.968-1.494 0-3.054-.476-3.054-3.192V10.42h-4.314V22.13c0 4.481 2.852 6.178 6.485 6.178 2.479 0 4.041-1.052 4.889-1.731v1.39h4.208V10.42h-4.31v11.983zm28.822-11.984h4.31v17.55h-4.31v-17.55zM227.38 20.603V14.39h4.516v-3.97h-4.516V5.428l-4.311.543v4.448h-1.561l-.781 3.97h2.342v6.893c0 4.684 1.223 6.959 6.247 6.959.61 0 1.595-.069 2.41-.238l.508-4.109c-.747.238-1.765.34-2.308.34-2.003 0-2.547-.544-2.547-3.633v.002zm-12.22 7.366h4.31V3.968l-4.311.544v23.457zm-106.8-8.487c-.101-2.92 1.63-5.634 5.228-5.634 1.462 0 2.58.713 3.022 1.866l-8.25 3.768zm5.127-9.402c-5.67 0-9.504 4.038-9.504 9.334 0 4.821 3.157 8.962 9.368 8.962 2.92 0 5.262-.748 7.673-2.139l-1.324-3.733c-1.968 1.324-3.767 2.07-6.008 2.07-1.765 0-3.157-.407-4.175-1.527l12.05-5.5c-.849-4.99-3.566-7.469-8.08-7.469v.002zm129.611 0c-2.24 0-3.768.711-4.855 1.493V3.967l-4.31.546v23.456h4.31V15.917c.713-.88 2.104-1.9 3.768-1.9 1.528 0 3.226.373 3.226 3.055v10.897h4.312V16.46c0-4.821-3.328-6.383-6.45-6.383v.002zm-34.796 12.661c-.374.373-2.003 1.732-4.413 1.732-2.003 0-2.817-.986-2.817-2.106 0-1.46.848-2.24 3.224-2.24 1.697 0 3.395.644 4.006 1.086V22.74zM205.11 10.08a17.84 17.84 0 0 0-5.907 1.018l-.848 4.072c1.46-.678 3.87-1.39 6.043-1.39 2.546 0 3.904.814 3.904 2.919v.78c-1.427-.746-3.022-1.018-4.617-1.018-3.938 0-7.027 1.732-7.027 5.872 0 3.192 2.342 5.975 6.45 5.975 2.852 0 4.48-1.118 5.261-1.9v1.56h4.244V17.31c0-3.904-1.391-7.23-7.504-7.23h.001zm-61.954 12.119c-1.12 1.153-2.614 2.14-4.718 2.14-3.09 0-4.379-2.411-4.379-5.026 0-2.953 1.56-5.26 4.616-5.26 1.969 0 3.53 1.052 4.48 2.308v5.839l.001-.001zm0-10.558c-.848-.678-2.376-1.56-4.82-1.56-4.921 0-8.725 3.426-8.725 9.062 0 6.348 3.87 9.165 8.047 9.165 2.68 0 4.378-.848 5.566-1.934v1.595h4.244v-24l-4.312.544v7.128zm-19.893 16.329h4.312V3.968l-4.312.544v23.457zm48.613-14.359h-10.421V4.205h-4.414v23.764h4.414V17.854h10.421v10.115h4.413V4.205h-4.414v9.405h.001zm10.932 5.872c-.103-2.92 1.628-5.634 5.227-5.634 1.461 0 2.581.713 3.022 1.866l-8.249 3.768zm5.125-9.402c-5.67 0-9.505 4.038-9.505 9.334 0 4.821 3.157 8.962 9.37 8.962 2.92 0 5.262-.748 7.672-2.139l-1.324-3.733c-1.968 1.324-3.767 2.07-6.008 2.07-1.765 0-3.157-.407-4.175-1.527l12.052-5.5c-.85-4.99-3.566-7.469-8.082-7.469v.002z" fill="#0DA448"/></g></svg>