<?xml version="1.0" standalone="no"?>
<!DOCTYPE svg PUBLIC "-//W3C//DTD SVG 20010904//EN"
 "http://www.w3.org/TR/2001/REC-SVG-20010904/DTD/svg10.dtd">
<svg version="1.0" xmlns="http://www.w3.org/2000/svg"
 width="320.000000pt" height="158.000000pt" viewBox="0 0 320.000000 158.000000"
 preserveAspectRatio="xMidYMid meet">
<metadata>
Created by potrace 1.15, written by Peter Selinger 2001-2017
</metadata>
<g transform="translate(0.000000,158.000000) scale(0.100000,-0.100000)"
fill="#000000" stroke="none">
<path d="M587 1240 c-98 -25 -182 -95 -225 -189 -22 -46 -26 -71 -26 -136 0
-97 29 -170 94 -235 46 -46 130 -90 173 -90 46 0 31 -16 -58 -62 -47 -23 -85
-49 -85 -55 0 -20 23 -15 60 12 64 48 130 30 264 -73 85 -65 145 -88 203 -79
64 11 118 63 129 127 l7 35 -25 -35 c-36 -53 -79 -60 -170 -28 -40 14 -101 37
-135 52 -34 14 -90 32 -125 39 l-62 13 99 37 c175 67 247 135 281 267 38 151
-38 309 -183 376 -58 28 -157 38 -216 24z m181 -64 c40 -29 59 -53 89 -114 36
-73 38 -82 37 -172 0 -86 -3 -101 -31 -155 -36 -69 -54 -88 -106 -110 -41 -17
-123 -20 -132 -5 -3 6 -13 10 -22 10 -33 0 -104 76 -136 146 -8 17 -20 70 -26
118 -10 75 -10 96 5 144 19 69 60 126 111 159 32 20 48 23 100 20 52 -4 69
-10 111 -41z"/>
<path d="M1130 1157 c-56 -28 -58 -111 -4 -136 31 -14 134 -15 134 -1 0 6 -12
10 -26 10 -23 0 -24 1 -10 16 54 53 -25 145 -94 111z"/>
</g>
</svg>
