<svg width="250" height="138" xmlns="http://www.w3.org/2000/svg"><g fill="none" fill-rule="evenodd"><g fill="#1A2A4F"><path d="M111.49 77.917c-1.971 1.708-4.7 2.57-8.176 2.57-3.529 0-6.26-.856-8.192-2.559-1.936-1.697-2.905-4.326-2.905-7.882v-16.21h5.737v16.21c0 .707.056 1.399.18 2.08.115.686.375 1.29.763 1.807.387.523.934.951 1.625 1.281.694.324 1.627.487 2.791.487 2.047 0 3.454-.454 4.233-1.36.782-.92 1.17-2.345 1.17-4.295v-16.21h5.73v16.21c.001 3.53-.983 6.153-2.957 7.87zM122.164 53.836v26.068h-5.185V53.836h5.185zM129.569 75.214c.228.397.527.726.894.985.36.253.781.441 1.26.564.469.122.967.18 1.475.18.365 0 .749-.038 1.15-.128a3.868 3.868 0 0 0 1.092-.396c.331-.188.61-.427.826-.732.22-.304.33-.684.33-1.151 0-.778-.517-1.361-1.554-1.75-1.035-.388-2.478-.777-4.323-1.173a24.79 24.79 0 0 1-2.21-.6 7.447 7.447 0 0 1-1.915-.908 4.491 4.491 0 0 1-1.354-1.43c-.34-.571-.509-1.27-.509-2.093 0-1.217.235-2.214.709-2.997a5.228 5.228 0 0 1 1.883-1.84c.775-.453 1.657-.77 2.63-.951.97-.182 1.969-.273 2.99-.273 1.026 0 2.017.097 2.98.292a7.937 7.937 0 0 1 2.57.984 6.048 6.048 0 0 1 1.883 1.847c.496.763.797 1.735.89 2.9h-4.926c-.073-.996-.453-1.676-1.13-2.027-.68-.35-1.49-.525-2.409-.525-.291 0-.61.014-.951.052-.345.033-.65.118-.93.24-.28.118-.518.3-.714.525-.193.233-.29.545-.29.933 0 .46.17.841.513 1.133.338.292.779.525 1.331.707.547.187 1.17.349 1.878.492.708.15 1.426.311 2.151.48.757.168 1.495.375 2.212.622.715.239 1.36.563 1.918.964.56.402 1.007.9 1.347 1.496.342.597.512 1.335.512 2.21 0 1.243-.247 2.279-.749 3.12a5.971 5.971 0 0 1-1.952 2.028c-.803.511-1.723.868-2.757 1.075-1.03.209-2.082.31-3.157.31-1.096 0-2.166-.108-3.21-.33a8.359 8.359 0 0 1-2.795-1.095 6.219 6.219 0 0 1-2.004-2.025c-.525-.836-.81-1.893-.862-3.154h4.927c-.001.56.115 1.038.35 1.44zM143.493 55.372h5.186v5.66h3.797v3.464h-3.797v9.346c0 .88.143 1.457.439 1.755.291.292.874.44 1.75.44.294 0 .572-.011.841-.037.267-.027.522-.059.767-.11v4.014c-.438.071-.925.123-1.46.142-.534.027-1.059.04-1.572.04-.8 0-1.563-.052-2.28-.161-.718-.119-1.354-.326-1.895-.643a3.295 3.295 0 0 1-1.295-1.353c-.32-.583-.481-1.348-.481-2.3V55.372zM159.319 75.376c.782.753 1.898 1.135 3.358 1.135 1.05 0 1.949-.266 2.699-.783.757-.526 1.218-1.082 1.39-1.666h4.562c-.73 2.267-1.849 3.878-3.36 4.858-1.508.971-3.332 1.456-5.471 1.456-1.485 0-2.825-.233-4.016-.705-1.196-.479-2.204-1.154-3.028-2.028-.834-.88-1.469-1.93-1.92-3.14-.454-1.224-.675-2.56-.675-4.016 0-1.413.232-2.727.695-3.945a9.248 9.248 0 0 1 1.974-3.16 9.211 9.211 0 0 1 3.045-2.098c1.177-.512 2.487-.765 3.924-.765 1.605 0 3.003.312 4.198.933a8.344 8.344 0 0 1 2.939 2.5c.76 1.05 1.32 2.24 1.655 3.575.345 1.34.468 2.74.366 4.196h-13.612c.072 1.685.5 2.896 1.277 3.653zm5.859-9.934c-.625-.674-1.562-1.017-2.827-1.017-.827 0-1.519.142-2.064.421a3.884 3.884 0 0 0-1.315 1.042c-.326.408-.56.848-.693 1.309a5.929 5.929 0 0 0-.237 1.243h8.432c-.244-1.314-.677-2.312-1.296-2.998zM178.287 61.031v3.504h.07a6.344 6.344 0 0 1 .988-1.625c.415-.5.89-.925 1.422-1.275a7.056 7.056 0 0 1 1.717-.823 6.158 6.158 0 0 1 1.901-.292c.336 0 .711.058 1.127.181v4.82c-.241-.046-.53-.092-.877-.13a10.458 10.458 0 0 0-.982-.053c-.95 0-1.751.157-2.407.474a4.235 4.235 0 0 0-1.592 1.294 5.222 5.222 0 0 0-.858 1.918 10.558 10.558 0 0 0-.253 2.37v8.51h-5.188V61.032h4.932z"/><g><path d="M111.49 107.382c-1.971 1.716-4.7 2.57-8.176 2.57-3.529 0-6.26-.854-8.192-2.55-1.936-1.71-2.905-4.333-2.905-7.888v-16.21h5.737v16.21c0 .706.056 1.398.18 2.078.12.68.375 1.29.763 1.807.387.525.934.952 1.625 1.276.694.33 1.627.5 2.791.5 2.047 0 3.454-.462 4.233-1.374.782-.915 1.17-2.345 1.17-4.288v-16.21h5.73v16.21c.001 3.532-.983 6.15-2.957 7.87zM121.897 90.5v2.628h.108c.657-1.094 1.514-1.898 2.558-2.396a7.403 7.403 0 0 1 3.212-.745c1.387 0 2.526.189 3.413.565.889.38 1.587.9 2.1 1.565.51.675.868 1.491 1.073 2.449.208.963.315 2.026.315 3.192v11.613h-5.189v-10.66c0-1.556-.241-2.72-.728-3.485-.485-.77-1.35-1.153-2.587-1.153-1.414 0-2.437.42-3.073 1.264-.632.835-.948 2.215-.948 4.139v9.895h-5.182V90.5h4.928zM137.146 87.578v-4.274h5.187v4.274h-5.187zm5.187 2.921v18.872h-5.187V90.499h5.187zM150.04 109.371L143.577 90.5h5.437l3.982 12.887h.07l3.981-12.887h5.148l-6.388 18.871h-5.769zM167.743 104.844c.778.749 1.898 1.132 3.359 1.132 1.045 0 1.943-.265 2.7-.79.755-.517 1.217-1.074 1.388-1.656h4.564c-.73 2.26-1.848 3.878-3.36 4.857-1.51.974-3.334 1.456-5.472 1.456-1.486 0-2.825-.234-4.018-.714a8.299 8.299 0 0 1-3.03-2.025c-.83-.873-1.463-1.921-1.918-3.135-.45-1.218-.673-2.557-.673-4.02 0-1.408.229-2.721.694-3.939a9.171 9.171 0 0 1 1.972-3.16 9.291 9.291 0 0 1 3.046-2.1c1.179-.51 2.487-.763 3.926-.763 1.605 0 3.003.31 4.194.934a8.28 8.28 0 0 1 2.942 2.499c.766 1.043 1.318 2.233 1.659 3.573.342 1.342.465 2.742.368 4.199h-13.62c.07 1.676.498 2.9 1.279 3.652zm5.86-9.929c-.62-.68-1.563-1.023-2.832-1.023-.825 0-1.511.144-2.062.415-.549.283-.985.628-1.31 1.042a3.73 3.73 0 0 0-.695 1.316 6.12 6.12 0 0 0-.239 1.241h8.437c-.249-1.314-.679-2.31-1.299-2.99zM186.295 90.5v3.503h.072a6.392 6.392 0 0 1 .989-1.627 6.342 6.342 0 0 1 1.42-1.275 6.871 6.871 0 0 1 1.72-.822 6.194 6.194 0 0 1 1.897-.292c.34 0 .716.058 1.13.18v4.82a9.188 9.188 0 0 0-.874-.129 10.454 10.454 0 0 0-.985-.052c-.951 0-1.755.154-2.407.472-.66.318-1.19.752-1.59 1.296a5.185 5.185 0 0 0-.86 1.916c-.17.732-.255 1.523-.255 2.377v8.504h-5.184V90.5h4.927zM199.548 104.675c.228.407.532.732.894.987.366.255.785.445 1.26.569.477.12.97.179 1.481.179.362 0 .746-.039 1.152-.122.395-.084.762-.22 1.093-.41.326-.173.6-.42.82-.724.216-.304.325-.686.325-1.152 0-.776-.52-1.362-1.55-1.749-1.032-.389-2.472-.777-4.323-1.173a25.059 25.059 0 0 1-2.208-.6 7.4 7.4 0 0 1-1.92-.915 4.363 4.363 0 0 1-1.344-1.425c-.344-.57-.516-1.27-.516-2.092 0-1.217.24-2.214.714-3a5.244 5.244 0 0 1 1.878-1.846 8.666 8.666 0 0 1 2.627-.945 16.334 16.334 0 0 1 2.997-.272c1.021 0 2.01.098 2.97.291.96.194 1.819.524 2.576.986a5.86 5.86 0 0 1 1.878 1.844c.499.765.8 1.73.897 2.902h-4.928c-.072-.998-.454-1.671-1.134-2.027-.678-.357-1.483-.527-2.41-.527-.29 0-.608.015-.947.052a3.291 3.291 0 0 0-.932.234 1.9 1.9 0 0 0-.709.532c-.199.234-.293.544-.293.932 0 .461.17.843.512 1.127.342.298.784.531 1.331.711.548.19 1.174.35 1.88.5a75.79 75.79 0 0 1 2.152.473c.753.168 1.49.375 2.208.62a7.476 7.476 0 0 1 1.92.968 4.694 4.694 0 0 1 1.35 1.496c.338.593.512 1.331.512 2.208 0 1.242-.254 2.28-.753 3.12a5.974 5.974 0 0 1-1.949 2.027c-.804.513-1.726.868-2.758 1.075a15.998 15.998 0 0 1-6.372-.02 8.385 8.385 0 0 1-2.793-1.094 6.282 6.282 0 0 1-2.004-2.021c-.525-.841-.808-1.898-.858-3.16h4.928c0 .56.117 1.045.346 1.441zM213.45 87.578v-4.274h5.186v4.274h-5.186zm5.186 2.921v18.872h-5.186V90.499h5.186zM221.164 84.837h5.185V90.5h3.795v3.463h-3.795v9.348c0 .873.143 1.462.436 1.755.291.29.874.434 1.752.434.29 0 .575-.007.84-.035.267-.027.525-.064.767-.11v4.017c-.436.07-.925.117-1.461.142-.537.026-1.06.04-1.568.04a14.31 14.31 0 0 1-2.286-.169 5.26 5.26 0 0 1-1.897-.635 3.424 3.424 0 0 1-1.295-1.348c-.318-.582-.472-1.354-.472-2.298V84.837zM239.653 114.993c-.997.653-2.384.983-4.157.983-.538 0-1.066-.019-1.59-.052-.524-.037-1.05-.082-1.59-.13v-4.267c.49.045.99.092 1.497.144.517.044 1.026.057 1.533.032.687-.072 1.187-.338 1.518-.804.33-.46.493-.97.493-1.528 0-.414-.072-.804-.222-1.167L230.53 90.5h5.515l4.268 12.92h.073l4.127-12.92h5.36l-7.88 21.203c-.564 1.534-1.342 2.628-2.339 3.29z"/></g></g><g fill="#BBA461"><path d="M92.204.083H80.756s12.17 1.425 20.104 17.298h11.444C104.37 1.508 92.204.083 92.204.083zM112.304 17.38c2.925-6.767 5.245-14.926 17-17.297H115.44c-2.877.453-5.422 1.67-7.397 2.934-.317.207-.621.414-.91.616 0 0 5.824 4.875 5.172 13.748z"/></g><path d="M48.697 26.798l.003 82.32c0 6.522 2 11.988 5.631 15.395l.04.031c4.499 3.828 13.541 6.393 22.497 6.393 5.885 0 11.138-.79 15.62-2.358 4.099-1.437 7.473-3.483 10.06-6.107 0 0 .171-.194.241-.13.076.066-.057.246-.057.246-1.018 1.427-3.709 4.42-10.11 8.025-8.68 4.883-17.472 7.047-29.508 7.047-20.871 0-40.142-7.397-49.082-18.832-3.515-4.548-5.067-8.861-5.067-17.752l.01-88.482C8.974 6.947 5.51 2.117.596.084h26.365c6.73 0 21.735 6.08 21.735 26.714z" fill="#BBA461"/></g></svg>