<?xml version="1.0" encoding="UTF-8" standalone="no"?>
<svg width="80px" height="80px" viewBox="0 0 80 80" version="1.1" xmlns="http://www.w3.org/2000/svg" xmlns:xlink="http://www.w3.org/1999/xlink" xmlns:sketch="http://www.bohemiancoding.com/sketch/ns">
    <!-- Generator: Sketch 3.4.2 (15855) - http://www.bohemiancoding.com/sketch -->
    <title>github</title>
    <desc>Created with Sketch.</desc>
    <defs></defs>
    <g id="Page-1" stroke="none" stroke-width="1" fill="none" fill-rule="evenodd" sketch:type="MSPage">
        <g id="github" sketch:type="MSLayerGroup" fill="#424242">
            <path d="M40,0 C17.9085937,0 0,17.9085937 0,40 C0,62.0914062 17.9085937,80 40,80 C62.0914062,80 80,62.0914062 80,40 C80,17.9085938 62.0914062,0 40,0 L40,0 Z M63.7542187,63.7542187 C60.6667188,66.8415625 57.0735937,69.2646875 53.0739063,70.9564062 C52.0579688,71.3860937 51.02625,71.7632812 49.98,72.0885937 L49.98,66.09375 C49.98,62.9426562 48.899375,60.625 46.7378125,59.140625 C48.0921875,59.0104687 49.3354688,58.828125 50.4682813,58.59375 C51.6010937,58.359375 52.7992188,58.0207812 54.0620313,57.578125 C55.3251563,57.1354687 56.4579688,56.608125 57.4604688,55.9960937 C58.4632813,55.3840625 59.4267188,54.5898438 60.3510938,53.6132812 C61.2757813,52.6367187 62.0503125,51.53 62.6753125,50.2929687 C63.3003125,49.0559375 63.7953125,47.5715625 64.1596875,45.8398437 C64.524375,44.108125 64.7065625,42.2004687 64.7065625,40.1171875 C64.7065625,36.0807813 63.3915625,32.6432813 60.76125,29.8046875 C61.959375,26.6796875 61.8290625,23.28125 60.370625,19.609375 L59.3940625,19.4921875 C58.7171875,19.4140625 57.4995312,19.7004687 55.7417188,20.3515625 C53.9839063,21.0026563 52.01125,22.0703125 49.82375,23.5546875 C46.725,22.6953125 43.50875,22.265625 40.1754688,22.265625 C36.8160938,22.265625 33.6129688,22.6953125 30.5660938,23.5546875 C29.1859375,22.6171875 27.8773437,21.8425 26.6403125,21.2304688 C25.4032812,20.6184375 24.41375,20.201875 23.6715625,19.9804688 C22.929375,19.7590625 22.2392187,19.6223437 21.60125,19.5703125 C20.9632813,19.5182812 20.553125,19.5051562 20.3707813,19.53125 C20.1884375,19.5573438 20.0582813,19.5832812 19.9801563,19.609375 C18.521875,23.3073438 18.3915625,26.7057812 19.5895313,29.8046875 C16.959375,32.6432813 15.6442187,36.0807813 15.6442187,40.1171875 C15.6442187,42.2004687 15.8265625,44.108125 16.1910938,45.8398437 C16.555625,47.5715625 17.0504688,49.0559375 17.6754688,50.2929687 C18.3004688,51.53 19.0751562,52.6367187 19.9996875,53.6132812 C20.9242187,54.5898438 21.8876562,55.3840625 22.8903125,55.9960937 C23.8929687,56.608125 25.0257812,57.1354687 26.28875,57.578125 C27.5517187,58.0207812 28.7496875,58.359375 29.8825,58.59375 C31.0153125,58.828125 32.25875,59.0104687 33.6129688,59.140625 C31.4775,60.5989062 30.4098438,62.9167188 30.4098438,66.09375 L30.4098438,72.2054687 C29.2303125,71.854375 28.0676562,71.4395312 26.9254687,70.9564062 C22.9259375,69.2646875 19.3326562,66.8415625 16.2453125,63.7542187 C13.158125,60.6670312 10.7348437,57.0735937 9.04328125,53.0739063 C7.29359375,48.9367187 6.40625,44.5379687 6.40625,40 C6.40625,35.4620312 7.29359375,31.0632812 9.04359375,26.9257812 C10.7353125,22.92625 13.1584375,19.3329687 16.245625,16.245625 C19.3328125,13.1582812 22.92625,10.7351562 26.9257812,9.04359375 C31.0632812,7.29359375 35.4620312,6.40625 40,6.40625 C44.5379688,6.40625 48.9367187,7.29359375 53.074375,9.04359375 C57.0740625,10.7353125 60.6671875,13.1584375 63.7546875,16.245625 C66.841875,19.3328125 69.265,22.92625 70.9565625,26.9257812 C72.70625,31.0632812 73.59375,35.4620312 73.59375,40 C73.59375,44.5379687 72.70625,48.9367187 70.9564063,53.0742187 C69.2648438,57.0735938 66.8414063,60.6671875 63.7542187,63.7542187 L63.7542187,63.7542187 Z" id="Shape" sketch:type="MSShapeGroup"></path>
        </g>
    </g>
</svg>
