<?xml version="1.0" encoding="UTF-8" standalone="no"?>
<svg width="80px" height="80px" viewBox="0 0 80 80" version="1.1" xmlns="http://www.w3.org/2000/svg" xmlns:xlink="http://www.w3.org/1999/xlink" xmlns:sketch="http://www.bohemiancoding.com/sketch/ns">
    <!-- Generator: Sketch 3.4.2 (15855) - http://www.bohemiancoding.com/sketch -->
    <title>linkedin</title>
    <desc>Created with Sketch.</desc>
    <defs></defs>
    <g id="Page-1" stroke="none" stroke-width="1" fill="none" fill-rule="evenodd" sketch:type="MSPage">
        <g id="linkedin" sketch:type="MSLayerGroup" fill="#424242">
            <g id="post-linkedin" sketch:type="MSShapeGroup">
                <path d="M72,0 L8,0 C3.6,0 0,3.6 0,8 L0,72 C0,76.4 3.6,80 8,80 L72,80 C76.4,80 80,76.4 80,72 L80,8 C80,3.6 76.4,0 72,0 L72,0 Z M24,68 L12,68 L12,32 L24,32 L24,68 L24,68 Z M18,25.2 C14,25.2 10.8,22 10.8,18 C10.8,14 14,10.8 18,10.8 C22,10.8 25.2,14 25.2,18 C25.2,22 22,25.2 18,25.2 L18,25.2 Z M68,68 L56,68 L56,46.8 C56,43.6001569 53.2,40.8 50,40.8 C46.8,40.8 44,43.6001569 44,46.8 L44,68 L32,68 L32,32 L44,32 L44,36.8 C46,33.6 50.4,31.2 54,31.2 C61.6,31.2 68,37.6 68,45.2 L68,68 L68,68 Z" id="Shape"></path>
            </g>
        </g>
    </g>
</svg>
