<?xml version="1.0" encoding="UTF-8" standalone="no"?>
<svg width="49px" height="40px" viewBox="0 0 49 40" version="1.1" xmlns="http://www.w3.org/2000/svg" xmlns:xlink="http://www.w3.org/1999/xlink" xmlns:sketch="http://www.bohemiancoding.com/sketch/ns">
    <!-- Generator: Sketch 3.4.2 (15855) - http://www.bohemiancoding.com/sketch -->
    <title>twitter</title>
    <desc>Created with Sketch.</desc>
    <defs></defs>
    <g id="Page-1" stroke="none" stroke-width="1" fill="none" fill-rule="evenodd" sketch:type="MSPage">
        <g id="twitter" sketch:type="MSLayerGroup" fill="#424242">
            <g id="Page-1" sketch:type="MSShapeGroup">
                <path d="M0,34.9642769 C0.788371521,35.0431141 1.57674304,35.0825327 2.36511456,35.0825327 C6.99022745,35.0825327 11.1160384,33.6634639 14.7425475,30.8253264 C12.5876653,30.7990474 10.656155,30.1420711 8.94801673,28.8543976 C7.23987848,27.5667242 6.07046073,25.9242835 5.43976349,23.9270756 C5.9653445,24.0321918 6.58290218,24.0847499 7.29243655,24.0847499 C8.21220333,24.0847499 9.09255152,23.9664942 9.93348115,23.7299827 C7.62092467,23.2832389 5.70912376,22.1466699 4.19807835,20.3202759 C2.68703293,18.4938819 1.93151022,16.3849881 1.93151022,13.9935945 L1.93151022,13.8753387 C3.32429991,14.6637103 4.83534532,15.0710356 6.46464648,15.0973146 C5.09813583,14.2038269 4.01412499,13.0278394 3.21261395,11.5693521 C2.4111029,10.1108647 2.01034738,8.52755194 2.01034738,6.81941364 C2.01034738,5.03243821 2.47023076,3.36371848 3.38999753,1.8132545 C5.8602283,4.88790342 8.87574933,7.33842491 12.4365607,9.16481891 C15.9973721,10.991213 19.8144042,12.0095262 23.887657,12.2197585 C23.7037037,11.3525499 23.611727,10.5904574 23.611727,9.93348115 C23.611727,7.20045988 24.5840519,4.86162438 26.5287016,2.91697462 C28.4733514,0.972324873 30.8253264,0 33.5846267,0 C36.4490433,0 38.8667159,1.05116202 40.8376447,3.15348608 C43.1239221,2.68046317 45.2262462,1.8658126 47.1446169,0.70953437 C46.4088035,3.10092798 44.9634557,4.94046153 42.8085735,6.22813503 C44.7269442,5.99162355 46.6190359,5.46604254 48.4848485,4.65139197 C47.2234541,6.62232079 45.5810134,8.34359861 43.5575265,9.81522545 L43.5575265,11.1160384 C43.5575265,13.7702225 43.1699105,16.4309764 42.3946785,19.0983001 C41.6194465,21.7656237 40.4368892,24.3146916 38.8470067,26.7455038 C37.2571241,29.176316 35.3584627,31.3377679 33.1510224,33.2298596 C30.9435822,35.1219512 28.2959678,36.6264268 25.2081793,37.7432865 C22.1203909,38.8601462 18.8026607,39.418576 15.2549889,39.418576 C9.76266733,39.418576 4.67767102,37.9338096 0,34.9642769 L0,34.9642769 L0,34.9642769 Z" id="Shape"></path>
            </g>
        </g>
    </g>
</svg>
